<svg xmlns="http://www.w3.org/2000/svg"><defs><font id="c44a3474510e076f453a95eeee3a1178" horiz-adv-x="1024"><font-face font-family="Deseret" font-weight="5" units-per-em="2048" ascent="1638" descent="-410" x-height="1063" cap-height="1483" bbox="-356 -440 2050 1577" underline-thickness="40" underline-position="-252" unicode-range="U+0020-F000"/><glyph glyph-name=".notdef" horiz-adv-x="1576" d="M1380 98v1381H197V98h1183zM98 0v1577h1381V0H98z"/><glyph glyph-name=".null" horiz-adv-x="0"/><glyph glyph-name="nonmarkingreturn" horiz-adv-x="569"/><glyph glyph-name="space" horiz-adv-x="569"/><glyph glyph-name="exclam" unicode="!" horiz-adv-x="569" d="M254 213h172V0H254v213zm0 1280h172V758l-43-416h-86l-43 416v735z"/><glyph glyph-name="quotedbl" unicode="&quot;" horiz-adv-x="727" d="M432 1450h193v-227l-56-277h-82l-55 277v227zm-326 0h193v-227l-55-277h-82l-56 277v227z"/><glyph glyph-name="numbersign" unicode="#" d="M479 866l-55-313h252l55 313H479zm631 166V866H891l-55-313h206V389H803L725-41H569l76 430H393L311-41H158l75 430H29v164h235l55 313H104v166h244l74 398h158l-74-398 254-2 71 400h162l-71-398h188z"/><glyph glyph-name="dollar" unicode="$" d="M887 381q0 113-90 178-45 29-176 72V96q266 47 266 285zm-389 940q-242 0-242-219-4-37-4-51 0-177 246-220v490zm520-256H854q0 109-59 174-55 80-150 80h-24V815q229-72 299-117 141-102 141-298t-82-298T735-27L621-45v-213H498v209Q316-16 192 65.5T68 424h157q16-152 47-197 53-96 226-133v555q-260 80-320 156-84 96-84 223 0 33 18.5 214T498 1468v109h123v-111q153 0 275-101.5t122-299.5z"/><glyph glyph-name="percent" unicode="%" horiz-adv-x="1820" d="M1247 1450h137L575-41H438zm-45-1141q0-207 207-207t207 207-207 207-207-207zm-143 0q0 350 350 350t350-350-350-350-350 350zm-856 744q0-207 206.5-207T616 1053t-206.5 207T203 1053zm-144-.5Q59 1403 409.5 1403T760 1052.5 409.5 702 59 1052.5z"/><glyph glyph-name="ampersand" unicode="&amp;" horiz-adv-x="1366" d="M279 373q0-25 6-68t65-106q72-85 206-85t302 162L530 686q-68-45-105.5-71.5t-91.5-80T279 373zm167 780q0-104 136-252 86 29 147 93t61 124q-2 193-160.5 193t-171-71-12.5-87zm728-471q0-172-121-371L1305 0h-226L952 152l-82-72Q813 31 748-4q-92-43-226-43T247 37.5 106 332q0 247 218 401l106 74-70 96q-104 133-104 258t126 209 253 84 227.5-94T963 1139q0-31-19.5-121T784 844l-108-70 268-332q66 137 66 240h164z"/><glyph glyph-name="quotesingle" unicode="'" horiz-adv-x="391" d="M98 1450h193v-227l-55-277h-82l-56 277v227z"/><glyph glyph-name="parenleft" unicode="(" horiz-adv-x="681" d="M149 528q0 524 332 965h115q-276-461-276.5-964.5T596-436H481Q149 4 149 528z"/><glyph glyph-name="parenright" unicode=")" horiz-adv-x="681" d="M354 528.5Q354 1032 78 1493h115q332-442 331.5-964.5T193-436H78Q354 25 354 528.5z"/><glyph glyph-name="asterisk" unicode="*" horiz-adv-x="796" d="M659 1362l43-127-221-53 137-185-100-71-127 190-131-188-100 73 141 181-219 63 39 121 215-80-8 230h127l-9-230z"/><glyph glyph-name="plus" unicode="+" horiz-adv-x="1196" d="M526 971h144V547h424V403H670V-20H526v423H102v144h424v424z"/><glyph glyph-name="comma" unicode="," horiz-adv-x="569" d="M180 213h213V0q-27-276-215-307v94Q303-145 303 0H180v213z"/><glyph glyph-name="hyphen" unicode="-" horiz-adv-x="681" d="M582 641V492H94v149h488z"/><glyph glyph-name="period" unicode="." horiz-adv-x="569" d="M178 0v213h213V0H178z"/><glyph glyph-name="slash" unicode="/" horiz-adv-x="569" d="M-16-43l485 1493h113L96-43H-16z"/><glyph glyph-name="zero" unicode="0" d="M560 125q150 0 226 132t76 442-73.5 445.5-225 135.5T338 1146t-74-443.5T337 259t223-134zm3-172Q88-47 88 702q0 356 114.5 553T562 1452t360.5-197T1038 702 923.5 149.5 563-47z"/><glyph glyph-name="one" unicode="1" d="M711 0H539v1024H209v139q215 31 270.5 74T590 1452h121V0z"/><glyph glyph-name="two" unicode="2" d="M276 948H102q0 211 106.5 357.5T608 1452q195 0 317-130t122-300q0-135-88.5-250T758 594L520 471q-72-39-165-122t-93-177h772V0H70q0 109 19.5 189.5t78.5 187T449 612l217 123q197 109 196 285 0 156-99 212t-190 56q-141 0-219-88t-78-252z"/><glyph glyph-name="three" unicode="3" d="M66 422h172q0-117 61-211t201-94q186 0 269 74.5T852 424q0 119-102.5 179.5T453 664v155q352 0 352 244 0 119-88 180-72 45-164 45-283 0-283-307l-172 2q0 469 443 469 453 0 452-414 0-166-174-288 217-96 217-357 0-440-491-440-258 0-342 108.5T92.5 249 66 422z"/><glyph glyph-name="four" unicode="4" d="M682 512v649L219 512h463zm0-172H57v195l662 917h135V512h211V340H854V0H682v340z"/><glyph glyph-name="five" unicode="5" d="M979 1452v-172H373l-58-406 4-4q86 86 257 86t323-111.5T1051 455q0-193-141.5-347.5T561-47Q309-47 190.5 88T72 356h184q29-92 79-161.5T526 125q328 0 328 332T553 788q-157 0-272-129H117l112 793h750z"/><glyph glyph-name="six" unicode="6" d="M279 434q-1-317 295-317t296 323q0 178-82.5 239.5T586 741t-213-77.5T279 434zm565 639q0 215-240 215-190 0-269-181t-79-374q197 172 346 172 449 0 449-463 0-180-117-334.5T571-47q-281 0-382 208T88 672t112.5 541.5T635 1452q100 0 231-88t156-291H844z"/><glyph glyph-name="seven" unicode="7" d="M94 1280v172h971v-154q-106-133-174-244.5T684 688 473 0H281q63 258 127.5 442T707 1006l165 274H94z"/><glyph glyph-name="eight" unicode="8" d="M264 387q0-270 300-270t300 276q0 166-99 227.5T565 682q-301 0-301-295zm298 901q-116 0-184.5-58.5T309 1073q0-63 17-100 49-137 213-137t222 75.5 58 149.5q0 112-84 182-57 45-173 45zm-2 164q162 0 302-88 137-100 137-297 0-117-55-182-55-72-127-119 78-25 148-125 88-98 88-276T930 94.5t-205-117T543-47Q342-47 210 78T78 371t69 252q31 59 164 139-121 82-151.5 149.5T129 1073q0 180 152 293 117 86 279 86z"/><glyph glyph-name="nine" unicode="9" d="M850 971q0 317-296 317T258 965q0-178 83-239.5T544 664t213 76.5T850 971zM285 332q0-215 239-215 190 0 269 180t79 375Q675 500 526 500 77 500 78 963q0 180 116.5 334.5T557 1452q276 0 379.5-209T1040 732 926.5 191.5 494-47q-98 0-233 88T106 332h179z"/><glyph glyph-name="colon" unicode=":" horiz-adv-x="569" d="M225 0v213h213V0H225zm0 862v213h213V862H225z"/><glyph glyph-name="semicolon" unicode=";" horiz-adv-x="569" d="M227 844v213h213V844H227zm0-631h213V0q-27-276-215-307v94Q350-145 350 0H227v213z"/><glyph glyph-name="less" unicode="&lt;" horiz-adv-x="1196" d="M1094 971V807L285 475l809-332V-20L92 403v144z"/><glyph glyph-name="equal" unicode="=" horiz-adv-x="1196" d="M102 373h992V229H102v144zm0 348h992V578H102v143z"/><glyph glyph-name="greater" unicode="&gt;" horiz-adv-x="1196" d="M1104 547V403L102-20v163l801 332-801 332v164z"/><glyph glyph-name="question" unicode="?" d="M492 0v213h188V0H492zm188 399H492v123q0 94 43 151.5t154.5 167 148 186.5 36.5 157q0 172-268 172-182 0-221-88t-51-236H158q0 479 454 479 49 0 239.5-26.5T1042 1118q0-82-25.5-154.5t-181-216T680 496v-97z"/><glyph glyph-name="at" unicode="@" horiz-adv-x="2078" d="M1051 920q-68 0-160-61.5t-128-181T727 478t56.5-155T920 248h32q18 6 64.5 19.5t136.5 149 90 355.5q-8 98-85 123t-107 25zm270-576q0-29 21.5-60.5T1419 252q18 0 108.5 19.5t175.5 172 85 289.5q0 23-17.5 135.5t-169 269T1279 1325t-235 31q-256 0-481-183.5T274 758q-35-109-34-209 0-152 91-333t396-316q123-45 270-45 39 0 130.5 8T1403-74l59-137q-242-88-438-88t-328.5 42-380 210.5T68 537q0 55 6 103t63.5 258 259 354.5T776 1460q154 47 350 47 72 0 153-19.5t223.5-78.5 245.5-173 150.5-217.5T1946 807t-21.5-202.5-68-183.5-119-169-177-114-161.5-34-107 17q-117 27-131 143-104-104-173.5-125.5T862 117t-151 40-134.5 148.5T537 467t5 88 33.5 159T762 953.5t282 115.5q49 0 140.5-27.5T1317 885l45 135h170l-199-612q-12-35-12-64z"/><glyph glyph-name="A" unicode="A" horiz-adv-x="983" d="M645 1462h193V-31H645L57 340l90 139 498-307v1290z"/><glyph glyph-name="B" unicode="B" horiz-adv-x="1366" d="M1063 170v512H688q-170 0-264-49t-94-195q0-268 252-268h481zm0 682v471H737q-193 0-265.5-79T399 1073q0-221 269-221h395zm192 641V0H520Q407 0 274 112T141 412t113 293q20 16 143 86-193 86-192 317 0 190 134 287.5t263 97.5h653z"/><glyph glyph-name="C" unicode="C" horiz-adv-x="1464" d="M242 733q0-148 33.5-261.5t132-230T707 125q317 0 430 422h196Q1222-47 696-47 569-47 465.5-8t-262 189.5T45 736t198.5 593T696 1518q466-1 609-486h-199q-111 313-399 314-199 0-297.5-115t-133-232.5T242 733z"/><glyph glyph-name="D" unicode="D" horiz-adv-x="1593" d="M854 678q252 145 356 463l-49 61q-139 144-363 144t-375-159-151-452l7-59 4-60 292-8q160 0 279 70zM628 508h-59q-59 0-94 2h-24l-146 4q43-156 155-272.5T796 125t332.5 111.5 151.5 213 43 228.5v113q0 104-51 227-136-303-369-430-63-37-141-58.5T628 508zm888 985V0h-193v172q-27-33-135.5-126T801-47 300.5 142.5 78 733t220 593 498 192 387-92.5 140-127.5v195h193z"/><glyph glyph-name="E" unicode="E" horiz-adv-x="1126" d="M512 461q160 0 287-101v1123h192V-10H799v186q-90 162-287 162-317 0-317-338H72q0 184 95 288.5T339 427t173 34z"/><glyph glyph-name="F" unicode="F" horiz-adv-x="1040" d="M684 1204q0 137-162 137-68 0-120-43t-52-161l2-396q137 55 234.5 204t97.5 259zM350 0H156v1135q0 180 75.5 283.5T520 1522q129 0 239.5-63.5T870 1241q0-115-50-230.5T628.5 730 350 528V0z"/><glyph glyph-name="G" unicode="G" horiz-adv-x="1024" d="M514 373q-135 0-230.5 58t-158 187.5T63 976t140.5 389T539 1526t305-96q109-70 133-297H807q-25 152-103 193.5T530 1368t-165.5-78-92-143.5T250 982t7-165.5 61.5-174T555 535q119 0 190 92l66 149v15h166l37-3L686 0 479-2l166 389q-77-14-131-14z"/><glyph glyph-name="H" unicode="H" horiz-adv-x="1095" d="M997 1403q0-283-37.5-414T727 768V-10H555v735q-496 0-496 383 0 403 363 403 188 0 249.5-157.5T733 999l-6-94q184 141 184 498h86zm-815-295q0-262 371-262l8 86v242q-6 31-25.5 123T404 1389t-167-54.5-55-226.5z"/><glyph glyph-name="I" unicode="I" horiz-adv-x="716" d="M236 1483h192v-307l176-101V891L428 991V-10H236v1112L31 1219v184l205-117v197z"/><glyph glyph-name="J" unicode="J" horiz-adv-x="1593" d="M285 737q0-537 442-596v1188q-442-55-442-592zm1024-3q0 554-459 597V139q459 41 459 595zm204-1q0-295-173-533.5T796.5-39 253 199.5 80 732t172 535.5T796 1509t544.5-240.5T1513 733z"/><glyph glyph-name="K" unicode="K" horiz-adv-x="1593" d="M897 254q0-74 49-115 109 18 244 158.5T1325 735t-151.5 454T798 1346t-375-159-151-454 108.5-409.5T627 150l24-11q49 37 49 113v498h197V254zM796 1518q278 0 501-191t223-593-198-570T905-41q-31 0-94 113l-12 22-11-22Q727-41 698-41 475-10 276.5 161T78 733t220 593 498 192z"/><glyph glyph-name="L" unicode="L" horiz-adv-x="1013" d="M870 475V317q0-115-62.5-201.5T673.5-9 508-47q-23-6-74-6T324.5-36.5 164.5 43 33 311v1182h172V479q0-92 9-170t64.5-140.5T444 106q33 0 143.5 27T698 324v151h172z"/><glyph glyph-name="M" unicode="M" horiz-adv-x="1478" d="M1335 738q0-402-157.5-553.5T915.5-7 684-47Q160-47 47 547h197q111-422 430-422 197 0 296 115.5T1104 471t35 264.5-34 263T970.5 1229 674 1346q-289-1-400-314H76q141 485 608 486 250 0 450.5-189T1335 738z"/><glyph glyph-name="N" unicode="N" horiz-adv-x="737" d="M317 1491V762l285 164 2-936H424v704L137 537v954h180z"/><glyph glyph-name="O" unicode="O" horiz-adv-x="1587" d="M1270 1483h192V-10h-192L766 309l2-360L61 420l93 153 532-356v344l584-368v1290z"/><glyph glyph-name="P" unicode="P" d="M981 2H788v1323H53v170h928V2z"/><glyph glyph-name="R" unicode="R" horiz-adv-x="1024" d="M686 0H506v729q-47-8-98-8-121 0-241 74.5T47 1065q0 356 275 356 96 0 184-47v127h180V954q82 57 82 148l135-4q0-193-217-312V0zM170 1065q0-190 213-191 55 0 123 13l-2 323q-72 88-182 88-152 0-152-233z"/><glyph glyph-name="S" unicode="S" horiz-adv-x="1259" d="M582-49Q384-49 251.5 82T119 389t69 264q31 66 164 148-68 43-106 88L51 979v160l119-54v41q0 193 132 295.5T599 1524t304-92q137-102 137-312 0-125-55-190-59-80-127-125 57-18 115-88l205-94V463l-97 43q12-55 13-121 0-190-157-312T582-49zm278 1163q0 119-68.5 178.5T604 1352t-186.5-62-67.5-148 25-136l6-17 237-110q127 0 172.5 61t57.5 96 12 78zM606 717q-301 0-301-311 0-283 300-283t300 291q0 122-63 200L625 717h-19z"/><glyph glyph-name="T" unicode="T" horiz-adv-x="1024" d="M207 1020H35v158q0 113 60.5 199.5t133 125.5 168.5 39l58 6q91 0 145.5-21.5t147-79.5T872 1184V2H700v1014l-6 141q-12 100-45 141-80 88-192 88h-45q-23-6-114-28.5T207 1171v-151z"/><glyph glyph-name="U" unicode="U" horiz-adv-x="1126" d="M585 1024q-174 0-298 100V2H94v1493h193v-186q88-162 286-162 317 0 318 338h123q0-188-127.5-324.5T585 1024z"/><glyph glyph-name="V" unicode="V" horiz-adv-x="1593" d="M792 1346q-218 0-329-116T312 998t-40-262 40-264 151-232.5T786 125t292.5 82.5T1159 360t-54 128.5T795 676v143l26 10q154 57 244 143t90 154-72.5 144-290.5 76zm7 172q287 0 377-102.5t107-147.5 17-105q0-123-78.5-230.5T991 754l-26-13 28-10q312-133 312-387 0-121-64.5-214T1069-5 810-47 544-8 254 181.5 78 736t174 553 290 189 257 40z"/><glyph glyph-name="W" unicode="W" horiz-adv-x="1933" d="M1407 291l283 1202h213L1522 0h-211L969 1217 633 0H422L45 1493h213L535 291l333 1202h207z"/><glyph glyph-name="X" unicode="X" horiz-adv-x="1208" d="M264 1493V170h735V0H72v1493h192z"/><glyph glyph-name="Y" unicode="Y" horiz-adv-x="1812" d="M147 1270q0-168 347-318l-127 353q-43 123-109 122-111 0-111-157zm787-502h-27q-86 0-168 10l189-561 194 576q-117-25-188-25zM35 1266q0 260 239 260 188 0 273-226l155-415q98-15 214-15t245 39l187 561h223l-150-411q86 80 162 207l90-54q-123-215-315-327L1034 0H823L541 821q-240 74-373 173.5T35 1266z"/><glyph glyph-name="Z" unicode="Z" d="M867 1520q126 0 259-90l-73-87q-76 63-150 64-106 0-203.5-94T539 1126q143 0 244.5-54t175-177 73.5-346-105.5-399.5T546-27 166 150.5 61 551q0 457 276.5 678t340 256 189.5 35zM544 145q183 0 247.5 148.5T856 567t-41 218.5-104.5 131T547 954q-184 0-246.5-149T238 550t55-241q68-164 251-164z"/><glyph glyph-name="bracketleft" unicode="[" horiz-adv-x="569" d="M131 1495h381v-154H305V-285h207v-153H131v1933z"/><glyph glyph-name="backslash" unicode="\" horiz-adv-x="569" d="M469-41L-16 1493H96L582-41H469z"/><glyph glyph-name="bracketright" unicode="]" horiz-adv-x="569" d="M47 1339v154h381V-440H47v153h207v1626H47z"/><glyph glyph-name="asciicircum" unicode="^" horiz-adv-x="960" d="M90 682l316 778h149l315-778H727l-248 606-248-606H90z"/><glyph glyph-name="underscore" unicode="_" d="M1184-256v-102H-45v102h1229z"/><glyph glyph-name="grave" unicode="`" horiz-adv-x="681" d="M274 1516l199-304H348L45 1516h229z"/><glyph glyph-name="a" unicode="a" horiz-adv-x="686" d="M457 1075h139V0H457L35 266l63 101 359-222v930z"/><glyph glyph-name="b" unicode="b" horiz-adv-x="1054" d="M766 123v369H496q-258 0-258-177 0-193 180-192h348zm0 491v338H530q-137 0-190-56t-53-124q0-158 194-158h285zm137 461V0H375q-84 0-178.5 79T102 293t80 215l105 61q-139 59-140 230 0 135 96.5 205.5T434 1075h469z"/><glyph glyph-name="c" unicode="c" horiz-adv-x="1085" d="M174 528q0-111 22.5-189.5t94-163.5T508 90q225 0 311 303h142Q879-35 502-35q-176 0-322.5 137.5T33 530t115.5 399T336 1066t166 28q329-1 438-351H797q-80 225-289 226-141 0-237.5-113T174 528z"/><glyph glyph-name="d" unicode="d" horiz-adv-x="1259" d="M614 487q182 104 258 334l-36 45q-98 102-260 102T305.5 855.5 197 528l4-43 2-41 108-4 103-2q110 0 200 49zM432 367H324l-105 4q31-113 112-197t243-84 239.5 79 108 153.5T952 487v82q0 68-37 164-121-280-271-323t-212-43zm660 708V0H952v123l-47-47Q772-35 576-35T217.5 102.5 55 528.5t159.5 427T572 1094t333-111l47-49v141h140z"/><glyph glyph-name="e" unicode="e" horiz-adv-x="808" d="M369 332q115 0 206-72v807h138V-8H575v135q-68 117-206 117-229 0-230-244H51q1 332 318 332z"/><glyph glyph-name="f" unicode="f" horiz-adv-x="747" d="M492 866q0 100-115 101-125 0-125-148l2-284q100 37 169 144t69 187zM252 0H113v817q0 279 262 279 90 0 171-46t81-157q0-162-137.5-322.5T252 381V0z"/><glyph glyph-name="g" unicode="g" horiz-adv-x="737" d="M371 268q-195 0-260.5 138T45 704t101.5 277T386 1098t222-68q76-51 94-215H582q-29 173-189 170-80 0-140-67.5t-68.5-158T176 647q0-84 46-173t177-89q86 0 138 66l47 108v10h118l27-2L494 0 344-2l121 281q-42-11-94-11z"/><glyph glyph-name="h" unicode="h" horiz-adv-x="798" d="M719 1010q0-203-27.5-298.5T524 553V-8H399v530Q43 522 43 799q0 289 260 288 225 0 225-368v-29q0-14-4-39 131 102 131 359h64zM131 799q0-190 266-191l6 62q0 330-114 329-158 1-158-200z"/><glyph glyph-name="i" unicode="i" horiz-adv-x="491" d="M170 1067h137V846l127-72V641l-127 72V-8H170v801L23 877v133l147-84v141z"/><glyph glyph-name="j" unicode="j" horiz-adv-x="1177" d="M205 529q0-386 319-427v854q-319-41-319-427zm737-1q0 399-330 430V100q330 29 330 428zm148 3q0-210-125-385T572-29 180.5 144 57 526t124 385 390 176 392.5-173T1090 531z"/><glyph glyph-name="k" unicode="k" horiz-adv-x="1208" d="M645 182q0-53 37-82 78 12 175 113.5T954 530 845.5 857 576 969 306 856 197 531t82.5-300T469 100q35 25 35 82v359h141V182zM55 528.5q0 288.5 159.5 427T572 1094t360-137.5T1094 529 951.5 117.5 651-29q-25 0-76 97-46-97-71-97Q336-4 195.5 118T55 528.5z"/><glyph glyph-name="l" unicode="l" horiz-adv-x="737" d="M627 342V229q0-82-63.5-173T367-35q-10-4-39-4-96 0-190.5 57.5T25 223v852h122V344q0-162 46.5-215T317 76q32 0 109.5 19.5T504 233v109h123z"/><glyph glyph-name="m" unicode="m" horiz-adv-x="1126" d="M961 531q0-286-170-455Q667-35 492-35 115-35 35 393h141Q254 90 485 90q141 0 237.5 112.5T819 528q0 109-23.5 191t-96 166T485 969q-206-1-288-226H55q102 350 437 351 178 0 323.5-138.5T961 531z"/><glyph glyph-name="n" unicode="n" horiz-adv-x="573" d="M229 1073V549l205 117V-8H305v508L98 387v686h131z"/><glyph glyph-name="o" unicode="o" horiz-adv-x="1208" d="M913 1067h140V-8H913L551 223l2-260L45 303l66 111 383-258v247l419-264v928z"/><glyph glyph-name="p" unicode="p" horiz-adv-x="870" d="M707 2H567v952H39v123h668V2z"/><glyph glyph-name="r" unicode="r" horiz-adv-x="768" d="M494 0H365v524q-49-6-89-6-242 0-242 253t197 253q70 0 134-35v92h129V688q59 37 59 105l98-2q0-137-157-226V0zM123 766q0-135 151-135 47 0 91 8l-3 233q-49 61-131 62-108 0-108-168z"/><glyph glyph-name="s" unicode="s" horiz-adv-x="972" d="M419-35q-142 0-237.5 92.5T86 278t49 193q20 43 119 107-39 23-78 61L37 705v114l86-37v29q0 137 75.5 195.5t123 75T424 1098q123 0 227-68 98-72 99-223 0-90-41-137-44-57-91-90 37-12 82-64l148-67V334l-70 31 8-89q0-139-112.5-225T419-35zm199 853q0 70-49 112.5T433 973t-134-46.5T252 824t22-111l170-80q94 0 134 57.5T618 818zM436 516q-217 0-217-223 0-205 216-205t216 209q0 86-45 145l-155 74h-15z"/><glyph glyph-name="t" unicode="t" horiz-adv-x="778" d="M150 735H25v113q0 82 58 166t204 96l41 4q94 0 184-57.5T629 852V2H504v729q0 160-45 214t-131 54q-25 0-101.5-20.5T150 844V735z"/><glyph glyph-name="u" unicode="u" horiz-adv-x="829" d="M414 737q-121 0-207 72V2H68v1075h139V942q61-117 207-117 227 0 227 244h88q0-332-315-332z"/><glyph glyph-name="v" unicode="v" horiz-adv-x="1105" d="M571 969q-156 0-265-113T197 528q0-106 26.5-187T331 175t235-85 211 59.5T834 259t-37 90-226 138v103q115 33 186.5 102.5T829 811t-36 92q-66 66-222 66zm9 125q202 0 265.5-74t77-108.5T936 838q0-86-49-158-76-98-193-145 123-43 184.5-120T940 249 871 62.5 590-35 216.5 102.5 55 528.5t161.5 427T580 1094z"/><glyph glyph-name="w" unicode="w" horiz-adv-x="1478" d="M319 0L12 1075h193l211-837 209 837h213l198-835 221 835h193L1133 0H938L721 817 514 0H319z"/><glyph glyph-name="x" unicode="x" horiz-adv-x="862" d="M219 1075V123h529V0H80v1075h139z"/><glyph glyph-name="y" unicode="y" horiz-adv-x="1331" d="M186 1028q-80 0-80-115 0-123 250-227l-92 254q-31 88-78 88zm493-475h-95q-37 6-52 8l136-405 141 415q-78-18-130-18zm-19 74q96 0 176 28l135 404h159l-106-297q63 59 117 149l63-39q-86-152-227-235L745 0H592L389 592Q24 707 25 911q0 186 172 187 139 0 196-162l113-299q58-10 154-10z"/><glyph glyph-name="z" unicode="z" horiz-adv-x="870" d="M608 1063q106 0 203-64l-53-63q-51 47-118 47t-135.5-67.5T387 780q106 0 178-37.5t125-128T743 366 667.5 79.5 393.5-49 120 80 45 367q0 332 228.5 514T608 1063zM391 74q131 0 187 119 71 190 8 346-56 119-190 119T217 549t-45-187 39-169Q260 74 391 74z"/><glyph glyph-name="braceleft" unicode="{" horiz-adv-x="684" d="M88 459v141q162 31 162 293l-2 350q0 248 168 248l149 6v-135l-90-10q-74 0-74-131l2-363q0-139-49-215T254 528q47-37 98-112.5T403 201l-2-363q0-121 74-133l90-10v-133l-149 6q-168 0-168 248l2 350q0 256-162 293z"/><glyph glyph-name="bar" unicode="|" horiz-adv-x="532" d="M328 1493V-440H205v1933h123z"/><glyph glyph-name="braceright" unicode="}" horiz-adv-x="684" d="M537 600V459q-162-35-162-293l2-350q0-248-168-248l-150-6v135l91 10q74 0 73 131l-2 363q0 137 46 206.5t57.5 81T371 528q-57 49-103.5 118T221 858l2 363q0 121-73 131l-91 10v135l150-6q168 0 168-248l-2-350q0-256 162-293z"/><glyph glyph-name="asciitilde" unicode="~" horiz-adv-x="1196" d="M154 596q0 76 17 133t65 112.5T358 897t121-27l269-161q40-27 78-27t69 25q37 25 37 104v31h106q0-68-13-119t-61.5-113.5T833 547t-169 51L444 737q-78 59-118 60-66 0-66-127l4-74H154z"/><glyph glyph-name="nonbreakingspace" horiz-adv-x="569"/><glyph glyph-name="exclamdown" unicode="¡" horiz-adv-x="681" d="M420-438H248v739l43 416h86l43-416v-739zm0 1513V862H248v213h172z"/><glyph glyph-name="cent" unicode="¢" d="M289 512l-4-63q-1-174 153-289l221 790q-31 12-73 12t-115-38q-182-80-182-412zm753 197H885q-37 174-150 211L504 123q115-49 244 22 104 74 135 230h161q0-243-163-333.5T628-49 465-25l-66-221h-75L395-4Q225 70 165.5 216T106 533t56 276q86 209 262 258 92 37 184 37h28q28 0 64-8l56 188h84l-66-213q133-31 185.5-117t67.5-138 15-107z"/><glyph glyph-name="sterling" unicode="£" d="M752 768V655H465q18-78 18-138 0-132-129-281L248 125q141 74 282 74 74 0 158-23 100-33 139-33t47 2q35 0 148 66l74-141Q987-43 827-43q-92 0-227.5 46T406 49t-99-11-141-65L68 109q126 105 194 202 61 104 62 193v24q-6 43-45 127H53v113h172q-115 172-114 289 0 430 477 430 41 0 184-20.5t199.5-134 68-172T1051 1016H870q-23 274-142.5 289.5T584 1321q-90 0-181-57-98-72-98-193 0-35 11.5-93T424 768h328z"/><glyph glyph-name="currency" unicode="¤" d="M584 899h-62q-176 0-176-209t176-209h62q182 0 182 209T584 899zm-23 162q100 0 205-47l115 110 120-125-118-112q41-66 59-174 0-94-68-217l117-117-119-113-108 113q-181-115-395-17L258 258 145 379l101 104q-66 84-66 214t76 198l-119 123 111 117 119-121q94 47 194 47z"/><glyph glyph-name="yen" unicode="¥" d="M1010 727V621H645V467h365V358H647V0H492v358H129v109h365v154H129v106h309L23 1452h153l393-688 394 688h153L700 727h310z"/><glyph glyph-name="section" unicode="§" d="M256 678q0-111 137-215 88-86 334-246 41 16 90 76.5T866 442q-12 119-125 205-86 58-166 121L408 887q-135-98-143.5-147.5T256 678zm526 397v25q0 78-19.5 142.5t-92 80.5-97.5 16q-176 0-176-165-12-84 166-195l277-166q196-127 196-328 0-84-19.5-146.5T942 220t-125-73Q917 20 918-102q0-25-23-181.5T535-440l-46 2q-178 0-258.5 135T150-84q0 26 6 55h176q-4-37-4-53 0-174 97-184t122-10q147 0 168.5 78.5T737-96q0 90-96 162-45 24-92 59l-92 61q-103 60-187 121Q90 422 90 664q0 162 223 290-100 80-100 191 0 25 7 97.5t92 142 155 89 158 19.5q211-25 261-120t60-142 10-92l-4-64H782z"/><glyph glyph-name="dieresis" unicode="¨" horiz-adv-x="681" d="M418 1450h188v-211H418v211zm-357 0h189v-211H61v211z"/><glyph glyph-name="copyright" unicode="©" horiz-adv-x="1208" d="M197 531q0-212 82.5-300T469 100q35 25 35 82v359h141V182q0-53 37-82 78 12 175 113.5T954 528v33q-202 1-316 109T524 967q-129-18-228-121t-99-315zm505 202q84-84 238-84-25 133-107.5 219T612 967q0-150 90-234zM55 528.5q0 288.5 159.5 427T572 1094t360-137.5T1094 529 951.5 117.5 651-29q-23 0-67 82l-9 15q-51-95-71-97Q336-4 195.5 118T55 528.5z"/><glyph glyph-name="ordfeminine" unicode="ª" horiz-adv-x="1509" d="M793 291q-435 1-435 451t428 450q319 0 369-295h-113q-37 203-254 203-315 0-315-358t320-357q218 0 249 209h113q-35-303-362-303zM757 47q286 0 486.5 201.5T1444 736t-203 486.5T754 1423t-484-202.5T70 733t200.5-485.5T757 47zm0-94q-325 0-554.5 229.5T-27 734t229.5 553T757 1518t553-228.5 228-552-228-554T757-47z"/><glyph glyph-name="guillemotleft" unicode="«" d="M932 217L614 469v178l318 250V725L721 557l211-168V217zm-410 0L201 469v178l321 250V725L301 557l221-168V217z"/><glyph glyph-name="logicalnot" unicode="¬" horiz-adv-x="696" d="M209 860q0-43 14.5-84T292 652t154-126l3 285q0 147-125 147-115 0-115-98zM588-8H449v381q-98 25-201 143.5t-138.5 201T74 898t78.5 143.5T326 1087q262 0 262-278V-8z"/><glyph glyph-name="degree" unicode="°" horiz-adv-x="819"/><glyph glyph-name="plusminus" unicode="±" horiz-adv-x="1124"/><glyph glyph-name="acute" unicode="´" horiz-adv-x="681" d="M387 1516h229l-303-304H188z"/><glyph glyph-name="mu" unicode="µ" horiz-adv-x="1179"/><glyph glyph-name="paragraph" unicode="¶" horiz-adv-x="1099" d="M1069 1493v-133H950V-365H817v1725H651V-365H518v893l-16 2-29 2q-47 0-82 17-125 37-210 165T96 995q0 100 47 226.5t175 199 219 72.5h532z"/><glyph glyph-name="ordmasculine" unicode="º" horiz-adv-x="1509" d="M573 786h164q156 0 235 20.5t79 137.5q0 152-228 152H573V786zm0-84V299H467v875h381q135 0 223-49.5t88-182.5q0-240-276-240l264-403h-127L770 702H573zM757 47q286 0 486.5 201.5T1444 736t-203 486.5T754 1423t-484-202.5T70 733t200.5-485.5T757 47zm0-94q-325 0-554.5 229.5T-27 734t229.5 553T757 1518t553-228.5 228-552-228-554T757-47z"/><glyph glyph-name="guillemotright" unicode="»" d="M829 557L612 725v172l312-250V469L608 217v172zm-405 0L209 725v172l301-250V469L201 217v172z"/><glyph glyph-name="questiondown" unicode="¿" horiz-adv-x="1251" d="M745 1075V862H557v213h188zM557 676h188V553q0-90-45-150.5t-155.5-170T398 47t-36-156q0-172 269-172 182 0 221 88.5T903 43h176q0-113-19.5-190.5T953-330.5 629-436h-56q-18 4-198 28.5T195-43q0 80 25.5 153.5t181 215T557 580v96z"/><glyph glyph-name="Aring" unicode="Å" d="M856 422h172q0-98-25.5-172T892 64.5 549-47Q57-47 57 393q0 258 217 357-174 125-174 360 0 414 453 414 442 0 442-469l-172-2q0 307-282 307-96 0-174-52.5T289 1135q0-315 291-316V664q-162 0-250-60.5T242 424q0-158 83-232.5T594 117q133 0 182 72.5t64.5 122T856 422z"/><glyph glyph-name="AE" unicode="Æ" d="M1014 1055V430q0-223-99.5-350T549-47Q57-47 57 393q0 258 217 357-174 125-174 360 0 414 453 414 461 0 461-469zM713 653q-471 0-471-229 0-158 83-232.5T594 117q133 0 182 68.5t64.5 118T856 412l8 641q0 307-323 307-96 0-174-52.5T289 1135q0-326 424-326V653z"/><glyph glyph-name="Egrave" unicode="È" horiz-adv-x="2048" d="M997 86h-86q0 350-184 498l6-95q0-98-10-174.5t-61.5-207T422-23Q60-23 59 381q0 383 496 383v735h172V721q190-88 230-221t40-414zM182 381q0-172 56-226.5T404 100t133.5 105.5T561 416v141l-8 86q-371 0-371-262z"/><glyph glyph-name="Ecircumflex" unicode="Ê" d="M491.5 301Q375 301 375 184.5T491.5 68 608 184.5 491.5 301zM743 178q0-113-64.5-173T498-55q-258 0-258 233 0 86 32.5 144.5T381 422L8 1499h193l291-870 311 870h192L596 424q147-95 147-246z"/><glyph glyph-name="Igrave" unicode="Ì" horiz-adv-x="1593" d="M272 733q0-295 108.5-409.5T627 150l24-11q49 37 49 113v498h197V254q0-74 49-115 109 18 244 158.5T1325 735v43q-284 0-441 153t-157 410q-182-25-318.5-169T272 733zm578 610q0-202 121-322t336-120q-37 186-150 305t-307 137zm-54 175q278 0 501-191t223-593-198-570T905-41q-31 0-94 115l-12 20-11-20Q729-39 698-41 475-10 276.5 161T78 733t220 593 498 192z"/><glyph glyph-name="Iacute" unicode="Í" horiz-adv-x="1593" d="M254 791V678q0-127 42-228.5t149.5-213T776 125t343 123 153 259.5 33 227.5q0 297-151.5 454T784 1346t-368-144q-86-84-124-208t-38-203zM61 0v1493h193v-195q25 31 134.5 125.5T775 1518t500.5-191T1499 734t-220.5-591.5T780-47 393.5 45 254 172V0H61z"/><glyph glyph-name="Ograve" unicode="Ò" horiz-adv-x="1040" d="M289 1194q0-109 94-256t238-207l2 395q0 115-64 170-45 35-108 35-162 0-162-137zM817-10H623v528q-133 37-327 259t-194 454q0 154 112 217t239 63q207 0 299-116 66-90 65-271V-10z"/><glyph glyph-name="Oslash" unicode="Ø" horiz-adv-x="1593" d="M1513 733q0-295-173-533.5T796.5-39 253 199.5 80 732t172 535.5T796 1509t544.5-240.5T1513 733zm-204 2q0 598-512 598T285 735t512-598 512 598z"/><glyph glyph-name="Ucircumflex" unicode="Û" horiz-adv-x="1366" d="M1229 1040h-187q0 149-122 236-102 63-238 63t-238-54.5T342 1084t174-189l420-96q334-80 334-393 0-236-173-340.5T694-39Q407-39 253.5 98.5T100 475h187q0-184 119.5-264T684 131t275.5 53.5T1077 379q0 182-313 260l-301 70q-115 25-214 101.5T150 1065t126.5 311T655 1509q334 0 428.5-115.5t120-189.5 25.5-164z"/><glyph glyph-name="germandbls" unicode="ß" horiz-adv-x="1177" d="M182 569v-82q0-94 30-164.5T319.5 171 559 90t246 87 109.5 186.5T940 528q0 211-108 325.5T566 968 299 866Q182 751 182 569zM45 0v1075h137V934l47 49q135 111 331 111t357.5-137.5T1079 529 918.5 102t-357-137T229 76l-47 47V0H45z"/><glyph glyph-name="aring" unicode="å" horiz-adv-x="819" d="M616 303h123q0-70-18.5-125T642 44 395-35Q41-35 41 283q0 184 156 258Q72 629 72 799q0 299 325 299 319 0 320-338l-125-2q0 221-203 221-180 0-180-162 0-227 209-227V477q-227 0-244-172 0-115 59.5-168T428 84q88 0 138 55t50 164z"/><glyph glyph-name="ae" unicode="æ" horiz-adv-x="860" d="M729 760V309q0-160-71.5-252T395-35Q41-35 41 283q0 184 156 258Q72 629 72 799q0 299 325 299 332 0 332-338zM389 979q-180 0-180-162 0-236 305-235V471q-324 0-340-166 0-115 59.5-168T428 84q170 0 188 213l7 461q0 221-234 221z"/><glyph glyph-name="ccedilla" unicode="ç" d="M78 1030h393v424h201v-424h379V860H672V-365H471V860H78v170z"/><glyph glyph-name="eacute" unicode="é" horiz-adv-x="849" d="M743 397q0-160-75.5-287.5T393.5-18 120 111 45 396t50 245.5T219 771t180 40q-41 61-115 132t-138 71-117-47l-54 63q90 64 200 64t339-183.5T743 397zM391 104q131 0 187 119 38 104 38 176t-38 170q-56 119-190 119t-175-93-41-187 44-199 175-105z"/><glyph glyph-name="icircumflex" unicode="î" horiz-adv-x="808" d="M719 61h-64q0 252-131 359l4-68q0-369-225-368Q43-16 43 274q0 276 356 277v528h125V518q135-63 165-157.5T719 61zM131 274q0-203 158-202 66 0 90 76.5T403 401l-6 62q-266 0-266-189z"/><glyph glyph-name="divide" unicode="÷" horiz-adv-x="1196" d="M705 758H492v213h213V758zm0-778H492v213h213V-20zm389 567V403H102v144h992z"/><glyph glyph-name="oslash" unicode="ø" horiz-adv-x="1167" d="M1090 531q0-210-125-385T572-29 180.5 144 57 526t124 385 390 176 392.5-173T1090 531zM573.5 98Q942 98 942 529T573.5 961 205 530 573.5 98z"/><glyph glyph-name="OE" unicode="Œ" horiz-adv-x="1593" d="M797 137q412 0 497 443-186 0-300 21T774 728t-125 292v154l2 147q-367-72-366-586 0-598 512-598zm512 568v30q0 598-533 598l-6-63q0-195 18.5-300.5T862 811q106-106 447-106zm204 28q0-295-173-533.5T796.5-39 253 199.5 80 732t172 535.5T796 1509t544.5-240.5T1513 733z"/><glyph glyph-name="oe" unicode="œ" horiz-adv-x="1177" d="M205 528q0-430 368-430 297 0 359 320-262 0-373 104-78 78-90 211l-2 111 2 106q-264-49-264-422zm737-20v20q0 432-383 433l-4-46q0-150 12.5-221T621 584q76-76 321-76zm148 23q0-210-125-385T572-29 180.5 144 57 526t124 385 390 176 392.5-173T1090 531z"/><glyph glyph-name="florin" unicode="ƒ" d="M289 950h260l41 224q0 66 73.5 180T879 1513l59 9q88 0 172-39l-59-164-11 6-16 10-45 19q-18 6-49 6t-91.5-46-84.5-206l-25-158h227V807H696L555 43q-29-135-39-160-43-139-133-230t-260-91q-68 0-100 20l36 185q66-98 185-21 74 61 104 193l172 868H289v143z"/><glyph glyph-name="macron" unicode="ˉ" horiz-adv-x="1478" d="M156 0v1493h192V285l748 1208h227V0h-193v1196L375 0H156z"/><glyph glyph-name="breve" unicode="˘" horiz-adv-x="1593" d="M285 737q0-537 442-596v1188q-442-55-442-592zm1024-3q0 554-459 597V139q459 41 459 595zm204-1q0-295-173-533.5T796.5-39 253 199.5 80 732t172 535.5T796 1509t544.5-240.5T1513 733z"/><glyph glyph-name="tilde" unicode="̃" d="M289 1135q0-303 364-340-64 68-110 133-94 145-94 420-160-43-160-213zm526-502q-348 0-460.5-31.5T242 418t83-226.5T594 117q133 0 182 68.5T840.5 303 856 412l2 231-43 25v-35zm-246 725q0-259 76-361 84-137 215-213l4 269q0 147-74.5 226T569 1358zm445-303V430q0-223-99.5-350T549-47Q57-47 57 393q0 258 217 357-174 125-174 360 0 414 453 414 461 0 461-469z"/><glyph glyph-name="summation" unicode="Σ" horiz-adv-x="1212"/><glyph glyph-name="Omega" unicode="Ω" horiz-adv-x="1572"/><glyph glyph-name="pi" unicode="π" horiz-adv-x="1124"/><glyph glyph-name="endash" unicode="–" d="M1149 641V492H-10v149h1159z"/><glyph glyph-name="emdash" unicode="—" horiz-adv-x="2048" d="M-18 492v149h2068V492H-18z"/><glyph glyph-name="quoteleft" unicode="‘" horiz-adv-x="454" d="M322 940H133v217q0 154 76 229 27 31 115 64v-84q-98-41-99-168 0-29 2-43h95V940z"/><glyph glyph-name="quoteright" unicode="’" horiz-adv-x="454" d="M131 1450h193v-211q0-246-193-264v80q98 10 98 184h-98v211z"/><glyph glyph-name="quotesinglbase" unicode="‚" horiz-adv-x="454" d="M131 211h193V0q0-244-193-264v80q98 12 98 184h-98v211z"/><glyph glyph-name="quotedblleft" unicode="“" horiz-adv-x="681" d="M610 940H422v217q0 154 76 229 27 31 114 64v-82q-98-41-98-168 0-29 2-45h94V940zm-323 0H98v217q0 154 76 229 27 31 115 64v-84q-98-41-99-168 0-29 3-43h94V940z"/><glyph glyph-name="quotedblright" unicode="”" horiz-adv-x="681" d="M426 1239v211h192v-211q0-246-192-264v80q98 10 98 184h-98zm-227 0h-99v211h193v-211q0-246-193-264v80q99 10 99 184z"/><glyph glyph-name="quotedblbase" unicode="„" horiz-adv-x="681" d="M422 0v211h192V0q0-244-192-264v80q98 12 98 184h-98zM195 0H96v211h193V0q0-244-193-264v80q99 12 99 184z"/><glyph glyph-name="dagger" unicode="†" horiz-adv-x="890" d="M354 217q-84 0-84-84t84-84 84 84-84 84zm-182-88q0 120 102 174L6 1079h139l209-626 224 626h139L430 305q104-68 105-176 1-168-181-168T172 129z"/><glyph glyph-name="daggerdbl" unicode="‡" d="M672-365H473V68H90v170h383v622H78v170h395v424h199v-424h379V860H672V238h362V68H672v-433z"/><glyph glyph-name="bullet" unicode="•" horiz-adv-x="716" d="M614 707q0-256-256-256T102 707t256 256 256-256z"/><glyph glyph-name="ellipsis" unicode="…" horiz-adv-x="2048" d="M1599 0v213h213V0h-213zM918 0v213h212V0H918zM236 0v213h213V0H236z"/><glyph glyph-name="perthousand" unicode="‰" horiz-adv-x="1187" d="M224 1520q130 0 189.5-33t339-254T1032 551q0-225-105.5-401.5T546-27 166 150.5 61 551t72 344 174.5 176 247.5 55q-59 90-159.5 185.5T190 1407q-74 0-149-64l-74 87q127 90 257 90zM544 145q183 0 247.5 148.5T856 548t-63.5 256T547 954q-94 0-159.5-37.5T280 785.5 238 568t61.5-273.5T544 145z"/><glyph glyph-name="guilsinglleft" unicode="‹" horiz-adv-x="681" d="M289 561l209-168V229L186 475v176l312 242V729z"/><glyph glyph-name="guilsinglright" unicode="›" horiz-adv-x="681" d="M174 737v156l315-238V471L174 229v164l219 166z"/><glyph glyph-name="trademark" unicode="™" horiz-adv-x="2048" d="M827 1518v-123H555V655H403v740H129v123h698zm1094 0V655h-135v740l-299-740h-80l-291 740V655H979v863h221l248-609 256 609h217z"/><glyph glyph-name="partialdiff" unicode="∂" horiz-adv-x="1011"/><glyph glyph-name="Delta" unicode="∆" horiz-adv-x="1253"/><glyph glyph-name="product" unicode="∏" horiz-adv-x="1572"/><glyph glyph-name="fraction" unicode="∕" horiz-adv-x="342" d="M-356-43l927 1493h117L-240-43h-116z"/><glyph glyph-name="periodcentered" unicode="∙" horiz-adv-x="569" d="M178 778q0 127 127 127t127-127-127-127-127 127z"/><glyph glyph-name="radical" unicode="√" horiz-adv-x="1124"/><glyph glyph-name="infinity" unicode="∞" horiz-adv-x="1460"/><glyph glyph-name="integral" unicode="∫" horiz-adv-x="561"/><glyph glyph-name="approxequal" unicode="≈" horiz-adv-x="1124"/><glyph glyph-name="notequal" unicode="≠" horiz-adv-x="1124"/><glyph glyph-name="lessequal" unicode="≤" horiz-adv-x="1124"/><glyph glyph-name="greaterequal" unicode="≥" horiz-adv-x="1124"/><glyph glyph-name="lozenge" unicode="◊" horiz-adv-x="1011"/><glyph glyph-name="apple" unicode="" horiz-adv-x="1617"/><glyph glyph-name="Lslash" horiz-adv-x="1708" d="M362-43H246l928 1493h116zm775 145h501V0h-626q12 137 51 209t194 158l142 73q127 68 127 160v27q0 150-187 149-94 0-144-52t-50-155h-113q14 180 101.5 240.5T1364 870q231 0 274-204l9-56q-1-166-189-254l-153-73q-43-20-105.5-72.5T1137 102zM61 1196v84q141 18 179 47 33 20 69 125h80V582H276v614H61z"/><glyph glyph-name="lslash" horiz-adv-x="1708" d="M426-43H309l928 1493h117zm971 348v389l-301-389h301zm0-100H991v114l430 551h88V307h138V205h-138V0h-112v205zM387 1452V582H274v614H61v84q141 18 179 47 33 20 69 125h78z"/><glyph glyph-name="Scaron" horiz-adv-x="681" d="M449 582H338v614H123v82q141 18 176 45t72 129h78V582z"/><glyph glyph-name="scaron" horiz-adv-x="1708" d="M1397 205H991v114l430 551h88V307h138V205h-138V0h-112v205zM352 651q222 1 221 175 0 86-66.5 119.5T313 979v94q229 0 230 146-12 137-185 137-109-14-145-86-18-22-18-101l-111 2q0 281 291 281t291-248q0-98-113-174 139-57 139-209 0-187-130-228.5T380 551t-126 12-133.5 82T61 834h113q12-84 25-101 39-82 153-82zM543-43H426l928 1493h116zm854 350v389l-301-389h301z"/><glyph glyph-name="Zcaron" horiz-adv-x="681" d="M314 651q224 1 223 175 0 86-67 119.5T276 979v94q229 0 230 146-12 137-184 137-106 0-130-51.5t-29-74-5-59.5H47q0 281 291 281t291-248q0-98-115-174 141-59 141-209 0-96-58-174t-255-94l-86 4Q25 594 25 834h112q0-35 6.5-59.5t31.5-74T314 651z"/><glyph glyph-name="zcaron" horiz-adv-x="681" d="M147 684h502V582H23q12 139 47 196 45 84 198 170l142 74q129 66 129 162 0 174-191 174t-190-207H43q14 180 103.5 240.5T375 1452q231 0 274-205l8-55q0-166-188-254l-154-74q-43-20-105.5-72.5T147 684z"/><glyph glyph-name="brokenbar" horiz-adv-x="532" d="M205-440v774h123v-774H205zm123 1933V719H205v774h123z"/><glyph glyph-name="Eth" horiz-adv-x="1196" d="M82 397v156h1032V397H82z"/><glyph glyph-name="glyph180" horiz-adv-x="1196" d="M102 872l101 103 395-397 395 397 101-103-396-395 396-395L993-20 598 377 203-20 102 82l396 395z"/><glyph glyph-name="Yacute" horiz-adv-x="819" d="M635 1145q0 225-225 225t-225.5-225 225-225T635 1145zm82 0q0-307-307.5-307T102 1145t307.5 307T717 1145z"/><glyph glyph-name="yacute" horiz-adv-x="1196" d="M82 0v156h1032V0H82zm444 1266h144V842h424V698H670V274H526v424H102v144h424v424z"/><glyph glyph-name="Thorn" horiz-adv-x="1474" d="M913 1067h140V-8H913L551 223l2-260L45 303l66 111 383-258v247l419-264v928z"/><glyph glyph-name="thorn" horiz-adv-x="1167" d="M205 529q0-386 319-427v854q-319-41-319-427zm737-1q0 399-330 430V100q330 29 330 428zm148 3q0-210-125-385T572-29 180.5 144 57 526t124 385 390 176 392.5-173T1090 531z"/><glyph glyph-name="minus" horiz-adv-x="870" d="M209 817q0-221 262-246-47 48-80 97-68 104-67 303-115-31-115-154zm379-362q-414 0-414-150 0-115 59.5-168T428 84q170 0 188 213l2 166-30 18v-26zM410 977q0-184 55-258 61-100 153-154l5 193q0 219-213 219zm319-217V309q0-160-71.5-252T395-35Q41-35 41 283q0 184 156 258Q72 629 72 799q0 299 325 299 332 0 332-338z"/><glyph glyph-name="multiply" horiz-adv-x="1228" d="M264 1493V170h735V0H72v1493h192z"/><glyph glyph-name="onesuperior" horiz-adv-x="839" d="M190 1075V123h529V0H51v1075h139z"/><glyph glyph-name="twosuperior" horiz-adv-x="1013" d="M885 750H750q0 215-263 215-94 0-167.5-40.5T246 780t125-135l303-70q240-55 239-282 0-172-97-230.5t-163.5-75T500-29Q289-29 180.5 71.5T72 342h135q0-248 291-248 106 0 192 38t86 140q0 127-225 189l-217 49q-84 18-154.5 73.5T109 760q0 328 362 327 240 0 307.5-82.5t87-138T885 750z"/><glyph glyph-name="threesuperior" horiz-adv-x="1593" d="M854 678q252 145 356 463l-49 61q-139 144-363 144t-375-159-151-452l7-59 4-60 292-8q160 0 279 70zM628 508h-59q-59 0-94 2h-24l-146 4q43-156 155-272.5T796 125t332.5 111.5 151.5 213 43 228.5v113q0 104-51 227-136-303-369-430-63-37-141-58.5T628 508zm888 985V0h-193v172q-27-33-135.5-126T801-47 300.5 142.5 78 733t220 593 498 192 387-92.5 140-127.5v195h193z"/><glyph glyph-name="onehalf" horiz-adv-x="512"/></font>
</defs>
</svg>
