<?xml version="1.0" standalone="no"?>
<!DOCTYPE svg PUBLIC "-//W3C//DTD SVG 1.1//EN" "http://www.w3.org/Graphics/SVG/1.1/DTD/svg11.dtd" >
<svg xmlns="http://www.w3.org/2000/svg">
<metadata>
Created by FontPrep 20130207 at Fri Jun 27 23:05:16 2014
 By Michael Elliott
(c) Daniel U. Thibault 2002; glyphs are (c) James Kass 1998-2002
</metadata>
<defs>
<font id="aa041304602ddc161943388b95e8c94f" horiz-adv-x='1024' >
  <font-face 
    font-family="HuneyBee"
    font-weight="400"
    font-stretch="normal"
    units-per-em="2048"
    panose-1="2 0 6 0 0 0 0 0 0 0"
    ascent="1638"
    descent="-410"
    x-height="910"
    cap-height="1400"
    bbox="-342 -600 2288 1712"
    underline-thickness="102"
    underline-position="-154"
    unicode-range="U+0020-F002"
  />
<missing-glyph horiz-adv-x="500" 
d="M288 32h960v1216h-960v-1216zM256 0v1280h1024v-1280h-1024z" />
    <glyph glyph-name=".notdef" horiz-adv-x="500" 
d="M288 32h960v1216h-960v-1216zM256 0v1280h1024v-1280h-1024z" />
    <glyph glyph-name=".null" horiz-adv-x="0" 
 />
    <glyph glyph-name="nonmarkingreturn" horiz-adv-x="390" 
 />
    <glyph glyph-name="space" unicode=" " horiz-adv-x="800" 
 />
    <glyph glyph-name="exclam" unicode="!" horiz-adv-x="624" 
d="M150 1304q16 206 162 244q146 -38 162 -244v-318q-2 -282 -122 -658h-80q-120 376 -122 658v318zM212 100q6 94 100 100q94 -6 100 -100q-6 -94 -100 -100q-94 6 -100 100z" />
    <glyph glyph-name="quotedbl" unicode="&#x22;" horiz-adv-x="920" 
d="M340 1560q0 -160 -76 -424h-88q-76 264 -76 424q2 126 120 128q118 -2 120 -128zM820 1560q0 -160 -76 -424h-88q-76 264 -76 424q2 126 120 128q118 -2 120 -128z" />
    <glyph glyph-name="numbersign" unicode="#" horiz-adv-x="840" 
d="M324 0v887l-244 105v144l244 -105v369h192v-451l244 -105v-144l-244 105v-805h-192z" />
    <glyph glyph-name="dollar" unicode="$" horiz-adv-x="1072" 
d="M554 808q-70 0 -114 -18q43 -169 189 -194q71 -12 157 -12q-22 116 -92 170t-140 54zM536 104q78 0 141 42q123 82 123 310v24q-258 0 -371 77q-69 47 -109 125q-48 -92 -48 -211t30 -201t93 -124t141 -42zM536 0q-128 0 -238 54t-164 164t-54 238t54 238t164 164t238 54
t238 -54t164 -164t54 -238t-54 -238t-164 -164t-238 -54z" />
    <glyph glyph-name="percent" unicode="%" horiz-adv-x="1152" 
d="M587 1296q-103 0 -167 -54q48 -202 128 -282q128 -128 328 -140q2 24 -20 167t-94 226t-175 83zM576 104q304 0 304 596v16q-112 12 -206 38t-196 100t-167 205q-39 -161 -39 -329t23 -314t95 -229t186 -83zM574 0q-150 0 -267 87t-172 256t-55 357t55 357t174 256
t267 87t267 -87t174 -256t55 -357t-55 -357t-174 -256t-269 -87z" />
    <glyph glyph-name="ampersand" unicode="&#x26;" horiz-adv-x="780" 
d="M468 910h192v-910h-168l-411 411l85 85l302 -302v716z" />
    <glyph glyph-name="quotesingle" unicode="'" horiz-adv-x="440" 
d="M340 1560q0 -160 -76 -424h-88q-76 264 -76 424q2 126 120 128q118 -2 120 -128z" />
    <glyph glyph-name="parenleft" unicode="(" horiz-adv-x="616" 
d="M468 1572h80q-260 -404 -268 -872q8 -468 268 -872h-80q-384 356 -388 872q4 516 388 872z" />
    <glyph glyph-name="parenright" unicode=")" horiz-adv-x="616" 
d="M148 1572q384 -356 388 -872q-4 -516 -388 -872h-80q260 404 268 872q-8 468 -268 872h80z" />
    <glyph glyph-name="asterisk" unicode="*" horiz-adv-x="1240" 
d="M928 910h192v-910h-168l-292 292v-292h-168l-412 412l86 84l302 -302v144l158 158l302 -302v716z" />
    <glyph glyph-name="plus" unicode="+" horiz-adv-x="1016" 
d="M508 1296q-72 0 -131 -25t-82 -77t-23 -139t59 -154t231 -93q71 -12 142 -18v352q-14 74 -69 114t-127 40zM704 0v680q-206 28 -358 75t-209 130t-57 185t57 179q112 151 367 151q92 0 190 -58t160 -183l42 -85v-1074h-192z" />
    <glyph glyph-name="comma" unicode="," horiz-adv-x="600" 
d="M164 94q12 98 118 106q126 -8 130 -200q-8 -148 -150 -222q-30 -14 -43 4t9 44q82 66 84 170l-40 -6q-105 -1 -108 104z" />
    <glyph glyph-name="hyphen" unicode="-" 
d="M520 558q-148 0 -208 72v-630h-192v910h168q20 -157 110 -214q54 -34 122 -34t122 34q90 57 110 214h192q-30 -132 -99 -214t-150 -110t-175 -28z" />
    <glyph glyph-name="hyphen" unicode="&#x2010;" 
d="M520 558q-148 0 -208 72v-630h-192v910h168q20 -157 110 -214q54 -34 122 -34t122 34q90 57 110 214h192q-30 -132 -99 -214t-150 -110t-175 -28z" />
    <glyph glyph-name="period" unicode="." horiz-adv-x="600" 
d="M184 100q0 44 28 72t72 28t72 -28t28 -72t-28 -72t-72 -28t-72 28t-28 72z" />
    <glyph glyph-name="slash" unicode="/" horiz-adv-x="1360" 
d="M1052 1400h192v-1400h-104l-382 382v-382h-104l-573 573l77 155l408 -408v253l78 155l408 -408v1080z" />
    <glyph glyph-name="zero" unicode="0" horiz-adv-x="1100" 
d="M552 1296q-114 0 -186 -83t-95 -229t-23 -284t23 -284t95 -229t186 -83t186 83t95 229t23 284t-23 284t-95 229t-186 83zM552 1400q148 0 267 -87t174 -256t55 -357t-55 -357t-174 -256t-269 -87t-267 87t-172 256t-55 357t55 357t174 256t267 87z" />
    <glyph glyph-name="one" unicode="1" horiz-adv-x="1100" 
d="M636 1400v-1296l168 -52v-52h-508v52l168 52v946l-158 -80v52l252 378h78z" />
    <glyph glyph-name="two" unicode="2" horiz-adv-x="1100" 
d="M546 1400q146 0 235 -68t119 -159t30 -197q-8 -256 -220 -376q-348 -200 -348 -496h472l64 112h48v-216h-792v104q24 182 137 331t299 229q168 80 168 285q0 216 -79 298q-47 49 -129 49t-134 -67t-72 -237l-56 -56h-70l-60 178l64 178l36 -108q44 124 121 170t167 46z
" />
    <glyph glyph-name="three" unicode="3" horiz-adv-x="1100" 
d="M800 1064q0 232 -264 232q-80 2 -164 -58t-139 -166l-69 44q64 148 168 216t212 68t205 -37t154 -114t57 -179t-57 -185t-183 -121q142 -38 219 -135t77 -235t-72 -231t-176 -128t-251 -35t-276 100t-155 344h94q24 -192 126 -266t214 -74t183 35q141 70 141 253
q0 132 -88 214t-278 98v108q186 30 254 99t68 153z" />
    <glyph glyph-name="four" unicode="4" horiz-adv-x="1100" 
d="M598 648v358l-276 -358h276zM598 536h-492l664 864v-752h148l56 112h20v-224h-224v-432l168 -52v-52h-508v52l168 52v432z" />
    <glyph glyph-name="five" unicode="5" horiz-adv-x="1100" 
d="M956 1400v-268h-52l-83 164h-442l-98 -392q105 96 252 96t263 -70t166 -180t50 -255t-70 -270t-179 -175t-223 -50q-214 0 -325 108t-127 272h121q15 -130 102 -203t229 -73q90 0 159 57q121 100 121 348t-120 337q-68 50 -160 50q-162 0 -237 -136h-174l160 640h667z
" />
    <glyph glyph-name="six" unicode="6" horiz-adv-x="1100" 
d="M556 104q88 0 147 48q105 85 105 267t-88 255q-46 38 -117 38t-140 -54t-102 -153t-39 -187q24 -98 85 -156t149 -58zM620 816q116 0 209 -53q171 -97 171 -331q0 -279 -208 -381q-104 -51 -256 -51t-251 75t-142 192t-43 315t53 389t170 310t277 119q235 0 304 -168
l-60 -120h-28q-21 184 -221 184q-105 0 -173 -111q-130 -212 -130 -625q32 130 122 193t206 63z" />
    <glyph glyph-name="seven" unicode="7" horiz-adv-x="1100" 
d="M238 0v52l106 52q-2 214 66 444t206 436l208 312h-556l-84 -164h-96l48 268h796l56 -56l-56 -80l-200 -308q-208 -368 -208 -848l36 -108h-322z" />
    <glyph glyph-name="eight" unicode="8" horiz-adv-x="1100" 
d="M550 830q80 0 142 -20q80 90 82 246q-6 234 -224 240q-218 -6 -224 -240q2 -156 82 -246q62 20 142 20zM550 104q216 8 224 312q-8 304 -224 312q-216 -8 -224 -312q8 -304 224 -312zM838 742q124 -102 128 -326q-8 -408 -416 -416q-408 8 -416 416q4 224 128 326
q-88 86 -96 314q32 332 384 344q352 -12 384 -344q-8 -228 -96 -314z" />
    <glyph glyph-name="nine" unicode="9" horiz-adv-x="1100" 
d="M544 1296q-88 0 -147 -48q-105 -85 -105 -267t88 -255q46 -38 117 -38t140 54t102 153t39 187q-24 98 -85 156t-149 58zM480 584q-116 0 -209 53q-171 97 -171 331q0 279 208 381q104 51 256 51t251 -75t142 -192t43 -315t-53 -389t-170 -310t-277 -119q-235 0 -304 168
l60 120h28q21 -184 221 -184q105 0 173 111q130 212 130 625q-32 -130 -122 -193t-206 -63z" />
    <glyph glyph-name="colon" unicode=":" horiz-adv-x="1040" 
d="M80 0v1400h192v-1296h688v-104h-880z" />
    <glyph glyph-name="semicolon" unicode=";" horiz-adv-x="744" 
d="M80 0v912h192v-808h392v-104h-584z" />
    <glyph glyph-name="less" unicode="&#x3c;" horiz-adv-x="1272" 
d="M100 0v1400h192v-1180l688 1180h192v-1400h-192v1180l-688 -1180h-192z" />
    <glyph glyph-name="equal" unicode="=" horiz-adv-x="884" 
d="M272 696q0 -60 71 -101t261 -83v204q-33 92 -156 92q-124 0 -158 -52q-18 -28 -18 -60zM604 0v408l-282 74q-142 42 -192 96t-50 119t50 116q96 99 314 99q96 0 181 -41t139 -155v-716h-160z" />
    <glyph glyph-name="greater" unicode="&#x3e;" horiz-adv-x="1040" 
d="M100 0v912h192v-672l488 672h160v-912h-192v672l-488 -672h-160z" />
    <glyph glyph-name="question" unicode="?" horiz-adv-x="988" 
d="M80 1164q0 176 123 264t299 88t296 -96t120 -255t-82 -265t-234 -128v-312l-68 -136q-28 -30 -56 0l-68 136v368q182 34 249 129t67 206t-60 180t-169 69t-185 -42t-85 -115q53 -31 53 -83t-28 -80t-72 -28t-72 28t-28 72zM406 100q0 44 28 72t72 28t72 -28t28 -72
t-28 -72t-72 -28t-72 28t-28 72z" />
    <glyph glyph-name="at" unicode="@" horiz-adv-x="724" 
d="M268 0v590l-184 92v120l184 -92v200h192v-296l184 -92v-120l-184 92v-494h-192z" />
    <glyph glyph-name="A" unicode="A" horiz-adv-x="1148" 
d="M584 104q100 0 172 83t95 229t23 284t-23 284t-95 229t-186 83q-70 0 -127 -25q-103 -45 -103 -207q0 -96 59 -163t231 -93v-104q-190 -16 -268 -96t-78 -216q0 -84 34 -152t100 -102t166 -34zM583 0q-139 0 -243 35t-176 128t-72 231t77 235t219 135q-126 38 -183 121
t-57 185t57 179t154 114t228 37t250 -87t174 -256t55 -357t-55 -357t-172 -256t-256 -87z" />
    <glyph glyph-name="B" unicode="B" horiz-adv-x="1228" 
d="M582 104q108 0 210 74t124 266v525l-51 103q-55 106 -139 166t-158 59t-133 -26t-82 -77t-23 -139t59 -154t231 -93v-104q-190 -16 -268 -96t-78 -216q0 -84 34 -152t100 -102t174 -34zM557 0q-123 0 -227 35t-176 128t-72 231t77 235t219 135q-126 38 -183 121t-57 185
t57 179q112 151 367 151q92 0 190 -58t164 -187v245h192v-1400h-192v160q-48 -64 -142 -112t-217 -48z" />
    <glyph glyph-name="C" unicode="C" horiz-adv-x="1028" 
d="M580 1296q-118 0 -190 -83t-95 -229t-23 -284t23 -284t95 -229t186 -83q176 0 204 328q124 0 168 -64q-4 -84 -35 -163t-120 -142t-229 -63t-257 87t-172 256t-55 357t55 357t174 256t267 87t254 -90t118 -278q0 -101 -73 -141q-35 -19 -87 -19t-87 19q-73 40 -73 131
q0 139 108 164q-38 110 -156 110z" />
    <glyph glyph-name="D" unicode="D" horiz-adv-x="1172" 
d="M576 104q304 0 304 596q0 198 -39 359q-65 -131 -167 -205t-196 -100t-206 -38v-16q0 -596 304 -596zM565 1296q-103 0 -175 -83t-94 -226t-20 -167q200 12 328 140q80 80 128 282q-64 54 -167 54zM80 700q0 188 55 357t174 256t267 87q210 0 304 -192v192h192v-1400
h-192v192q-94 -192 -304 -192q-148 0 -267 87t-174 256t-55 357z" />
    <glyph glyph-name="E" unicode="E" horiz-adv-x="1100" 
d="M564 0q-126 0 -230 35t-176 128t-72 231t77 235t219 135q-126 38 -183 121t-57 185t57 179q112 151 367 151q100 0 204 -68t168 -216l-69 -44q-55 106 -139 166t-158 59t-133 -26t-82 -77t-23 -139t59 -154t231 -93v-104q-190 -16 -268 -96t-78 -216q0 -84 34 -152
q68 -136 254 -136q128 0 230 74t126 266h94q-26 -244 -155 -344t-297 -100z" />
    <glyph glyph-name="F" unicode="F" horiz-adv-x="1016" 
d="M744 1055q0 87 -23 139t-82 77t-131 25t-127 -40t-69 -114v-352q71 6 142 18q172 26 231 93t59 154zM120 0v1074l42 85q62 125 160 183t202 58t201 -37t154 -114t57 -179t-57 -185t-209 -130t-358 -75v-680h-192z" />
    <glyph glyph-name="G" unicode="G" horiz-adv-x="1312" 
d="M1040 868q0 108 -56 228t-144 160t-184 40t-183 -40q45 -210 128 -293q131 -131 331 -143l108 -8v56zM1040 308v400l-104 8q-112 12 -206 38t-196 100t-167 205q-14 27 -25 65q-70 -136 -70 -256v-560q0 -120 40 -162t92 -42q129 0 156 180v172h192v-172
q27 -180 156 -180q52 0 92 42t40 162zM80 308v560q0 128 68 265t208 202t300 65t300 -65t208 -202t68 -265v-560q0 -124 -78 -216t-249 -92t-249 136q-77 -136 -249 -136q-171 0 -249 92t-78 216z" />
    <glyph glyph-name="H" unicode="H" horiz-adv-x="1160" 
d="M798 1296q-26 0 -52 -22q-42 -36 -42 -170v-192q84 14 134 63t50 119t-9 110t-32 66t-49 26zM795 1400q91 0 153 -35q132 -75 132 -261q0 -84 -58 -158q-104 -133 -318 -138v-808h-192v808q-148 0 -237 37t-142 110t-53 145t21 126q43 111 219 178q20 -16 52 -74
q-58 -46 -79 -114t-21 -113t26 -90q58 -101 214 -101v192q0 190 134 264q58 32 149 32z" />
    <glyph glyph-name="I" unicode="I" horiz-adv-x="1132" 
d="M572 104q100 0 172 83t95 229t23 254q-178 30 -326 30q-64 0 -126 -30t-100 -104t-38 -166t34 -160t100 -102t166 -34zM571 0q-139 0 -243 35t-176 128t-72 213t50 214t164 154t264 60t302 -33q-4 105 -28 222t-96 210t-178 93q-70 0 -127 -25q-103 -45 -103 -207h-192
q0 108 57 185t154 114t228 37t250 -87t174 -256t55 -357t-55 -357t-172 -256t-256 -87z" />
    <glyph glyph-name="J" unicode="J" horiz-adv-x="1068" 
d="M296 1012q0 -80 29 -149t94 -106t173 -37t380 64v-128l-328 -656h-192l312 628q-120 -24 -230 -24t-218 49q-212 96 -212 367q0 120 84 210q159 170 412 170q148 0 254 -90t118 -278q0 -101 -73 -141q-35 -19 -87 -19t-87 19q-73 40 -73 131q0 139 108 164
q-38 110 -160 110q-64 0 -141 -34t-120 -102t-43 -148z" />
    <glyph glyph-name="K" unicode="K" horiz-adv-x="1312" 
d="M1040 308v560q0 108 -56 228t-144 160t-184 40t-184 -40t-144 -160t-56 -228v-560q0 -120 40 -162t92 -42q129 0 156 180v532h192v-532q27 -180 156 -180q52 0 92 42t40 162zM80 308v560q0 128 68 265t208 202t300 65t300 -65t208 -202t68 -265v-560q0 -124 -78 -216
t-249 -92t-249 136q-77 -136 -249 -136q-171 0 -249 92t-78 216z" />
    <glyph glyph-name="L" unicode="L" 
d="M512 104q220 0 220 176v260h192v-260q0 -108 -108 -194t-304 -86t-304 86t-108 194v1120h192v-1120q0 -176 220 -176z" />
    <glyph glyph-name="M" unicode="M" horiz-adv-x="1028" 
d="M292 1186q108 -25 108 -163q0 -92 -73 -132q-35 -19 -87 -19t-87 19q-73 40 -73 141q12 188 118 278t254 90t267 -87t174 -256t55 -357t-55 -357t-172 -256t-257 -87t-229 63t-120 142t-35 163q44 64 168 64q20 -236 113 -299q43 -29 91 -29q114 0 186 83t95 229t23 284
t-23 284t-95 229t-190 83t-156 -110z" />
    <glyph glyph-name="N" unicode="N" horiz-adv-x="924" 
d="M608 0v742l-406 -406l-78 155v909h192v-718l382 382h102v-1064h-192z" />
    <glyph glyph-name="O" unicode="O" horiz-adv-x="1152" 
d="M576 1296q-114 0 -186 -83t-95 -229t-23 -284t23 -284t95 -229t186 -83t186 83t95 229t23 284t-23 284t-95 229t-186 83zM576 1400q148 0 267 -87t174 -256t55 -357t-55 -357t-174 -256t-269 -87t-267 87t-172 256t-55 357t55 357t174 256t267 87z" />
    <glyph glyph-name="P" unicode="P" horiz-adv-x="1040" 
d="M768 0v1296h-688v104h880v-1400h-192z" />
    <glyph glyph-name="Q" unicode="Q" horiz-adv-x="1152" 
d="M576 104q114 0 186 83t95 229t23 284t-23 284t-95 229t-186 83t-186 -83t-95 -229t-23 -284t23 -284t95 -229t186 -83zM576 0q-210 0 -304 192v-192h-192v1400h192v-192q94 192 304 192q148 0 267 -87t174 -256t55 -357t-55 -357t-174 -256t-267 -87z" />
    <glyph glyph-name="R" unicode="R" horiz-adv-x="1296" 
d="M330 1052q-58 0 -58 -136q0 -48 44 -88q94 -85 272 -100q-112 247 -193 301q-35 23 -65 23zM592 0v616q-104 0 -237 33t-204 102t-71 155t32 147t87 96t98 35t95 -23t96 -73t104 -144v456h192v-680q156 0 214 101q26 45 26 90t-21 113t-79 114q32 58 52 74
q176 -67 219 -178q21 -54 21 -126t-53 -145t-142 -110t-237 -37v-616h-192z" />
    <glyph glyph-name="S" unicode="S" horiz-adv-x="1276" 
d="M612 124q220 8 236 232q-4 96 -200 256q-252 -108 -260 -256q0 -220 224 -232zM560 916q216 48 236 192q-12 156 -188 168q-148 -4 -156 -144q-16 -100 108 -216zM612 0q-408 12 -416 356q16 248 352 348l-92 84q-328 -16 -388 204q4 88 104 64q32 -168 200 -168
q-108 100 -112 244q48 260 348 268q340 -24 380 -292q4 -236 -336 -296l72 -68l172 52q116 24 180 -24q112 -108 120 -188q-36 -76 -116 -36l-64 132q-44 36 -144 6l-76 -26q216 -120 244 -304q-32 -356 -428 -356z" />
    <glyph glyph-name="T" unicode="T" 
d="M512 1296q-220 0 -220 -176v-260h-192v260q0 108 108 194t304 86t304 -86t108 -194v-1120h-192v1120q0 176 -220 176z" />
    <glyph glyph-name="U" unicode="U" horiz-adv-x="1152" 
d="M272 700q0 -495 208 -578v1156q-208 -83 -208 -578zM880 700q0 495 -208 578v-1156q208 83 208 578zM574 0q-150 0 -267 87t-172 256t-55 357t55 357t174 256t267 87t267 -87t174 -256t55 -357t-55 -357t-174 -256t-269 -87z" />
    <glyph glyph-name="V" unicode="V" horiz-adv-x="1148" 
d="M574 104q100 0 166 34t100 102t34 152q0 136 -78 216t-268 96v104q172 26 231 93t59 154t-23 139t-80 77t-127 25q-114 0 -186 -83t-95 -229t-23 -284t23 -284t95 -229t172 -83zM575 0q-139 0 -256 87t-172 256t-55 357t55 357t174 256t250 87t228 -37t154 -114t57 -179
t-57 -185t-183 -121q142 -38 219 -135t77 -235t-72 -231t-176 -128t-243 -35z" />
    <glyph glyph-name="W" unicode="W" horiz-adv-x="1312" 
d="M80 308v1092h192v-1092q0 -120 40 -162t92 -42q129 0 156 180v532h192v-532q27 -180 156 -180q52 0 92 42t40 162v1092h192v-1092q0 -124 -78 -216t-249 -92t-249 136q-77 -136 -249 -136q-171 0 -249 92t-78 216z" />
    <glyph glyph-name="X" unicode="X" horiz-adv-x="1028" 
d="M756 388q0 80 -30 136q-49 92 -210 124q-116 24 -216 60t-160 114t-60 198t84 210q159 170 412 170q148 0 254 -90t118 -278q0 -101 -73 -141q-35 -19 -87 -19t-87 19q-73 40 -73 131q0 139 108 164q-38 110 -160 110q-64 0 -141 -34t-120 -102t-43 -148t26 -130
q45 -87 218 -130q300 -72 382 -184q50 -68 50 -188t-84 -210q-159 -170 -412 -170q-148 0 -254 90t-118 278q0 101 73 141q35 19 87 19t87 -19q73 -40 73 -131q0 -139 -108 -164q38 -110 160 -110q64 0 141 34t120 102t43 148z" />
    <glyph glyph-name="Y" unicode="Y" horiz-adv-x="1884" 
d="M1072 344l124 384q-116 -20 -232 -26zM420 1296q-36 0 -70 -22q-78 -50 -78 -159t93 -180t343 -99l-88 296q-16 48 -48 90t-74 58t-78 16zM80 1091q0 99 46 170t130 105t168 34q336 -24 412 -268l92 -308q162 12 314 46l170 530h216l-140 -432q160 90 220 256l96 -96
q-60 -136 -154 -212t-220 -126l-254 -790h-216l-212 706q-174 6 -337 52t-247 140t-84 193z" />
    <glyph glyph-name="Z" unicode="Z" horiz-adv-x="1132" 
d="M562 104q100 0 166 34t100 102t34 160t-38 166t-100 104t-126 30q-148 0 -326 -30q0 -108 23 -254t95 -229t172 -83zM563 0q-139 0 -256 87t-172 256t-55 357t55 357t174 256t250 87t228 -37t154 -114t57 -185h-192q0 162 -103 207q-57 25 -127 25q-106 0 -178 -93
t-96 -210t-28 -222q152 33 302 33t264 -60t164 -154t50 -214t-72 -213t-176 -128t-243 -35z" />
    <glyph glyph-name="bracketleft" unicode="[" horiz-adv-x="1064" 
d="M440 196v100q-60 -6 -104 -33t-44 -61t10 -54q21 -43 66 -44q72 0 72 92zM772 188q0 99 -140 108v-100q0 -131 -136 -176q-60 -20 -128 -20q-268 0 -268 196q0 182 340 204v510h192v-510q332 -24 332 -204q0 -80 -42 -122t-108 -66q-78 1 -93 64q51 62 51 116z" />
    <glyph glyph-name="backslash" unicode="\" horiz-adv-x="888" 
d="M413 127q0 -23 25 -23t35 8q9 8 9 14t-14 34l-21 43l-19 -37q-15 -27 -15 -39zM443 0q-49 0 -87 32t-39 78q0 46 24 98l50 101l-311 603h192l176 -472l168 472h192l-302 -603l54 -103q28 -49 28 -87t-16 -63q-16 -24 -48 -40t-81 -16z" />
    <glyph glyph-name="bracketright" unicode="]" horiz-adv-x="992" 
d="M272 256q0 -36 24 -76q45 -76 206 -76t199 161q19 79 19 139q-82 28 -176 36q-272 0 -272 -184zM718 518q2 50 -12 118t-46 104t-58 46l-58 -242q87 -9 174 -26zM324 682q0 -46 39 -85t69 -39l64 250q-120 0 -154 -52q-18 -28 -18 -74zM496 0q-416 0 -416 256
q0 88 67 154t192 88q-107 26 -157 80t-50 119t50 116q96 99 314 99q148 0 240 -65t134 -160t42 -231t-42 -231t-134 -160t-240 -65z" />
    <glyph glyph-name="asciicircum" unicode="^" horiz-adv-x="920" 
d="M608 1400h192v-1400h-104l-573 573l77 155l408 -408v1080z" />
    <glyph glyph-name="underscore" unicode="_" horiz-adv-x="1336" 
d="M672 860q-239 0 -360 164v-1024h-192v1400h160q16 -106 56 -211t128 -165t208 -60t208 60t128 165t56 211h192q-20 -200 -114 -322t-210 -170t-260 -48z" />
    <glyph glyph-name="grave" unicode="`" 
d="M504 352q148 0 208 -72v630h192v-910h-168q-20 157 -110 214q-54 34 -122 34t-122 -34q-90 -57 -110 -214h-192q30 132 99 214t150 110t175 28z" />
    <glyph glyph-name="a" unicode="a" horiz-adv-x="992" 
d="M544 440q-272 0 -272 -184q0 -36 24 -76q45 -76 206 -76t199 161q19 79 19 191t-19 191q-39 161 -205 161q-120 0 -154 -52q-18 -28 -18 -74t44 -92t176 -46v-104zM496 0q-416 0 -416 256q0 88 67 154t192 88q-107 26 -157 80t-50 119t50 116q96 99 314 99q148 0 240 -65
t134 -160t42 -231t-42 -231t-134 -160t-240 -65z" />
    <glyph glyph-name="b" unicode="b" horiz-adv-x="1108" 
d="M544 440q-272 0 -272 -184q0 -36 24 -76q45 -76 200 -76q88 0 176 41t124 145v322l-52 80q-86 116 -248 116q-120 0 -154 -52q-18 -28 -18 -74t44 -92t176 -46v-104zM496 0q-416 0 -416 256q0 88 67 154t192 88q-107 26 -157 80t-50 119t50 116q96 99 314 99
q80 0 162 -33t138 -119v150h192v-910h-192v100q-44 -46 -126 -73t-174 -27z" />
    <glyph glyph-name="c" unicode="c" horiz-adv-x="904" 
d="M272 456q0 -112 19 -191q39 -161 205 -161q76 0 141 43t107 129q22 32 56 17t24 -53q-98 -240 -328 -240q-148 0 -240 65t-134 160t-42 231t42 231t134 160t240 65t238 -87t90 -197q0 -73 -56 -105q-26 -15 -64 -15t-64 15q-56 32 -56 105q0 46 22 75t52 38
q-41 67 -162 67q-166 0 -205 -161q-19 -79 -19 -191z" />
    <glyph glyph-name="d" unicode="d" horiz-adv-x="1012" 
d="M516 104q84 0 135 41q89 72 89 311q0 119 -22 202q-34 -60 -100 -104q-105 -70 -326 -73v-25q0 -239 89 -311q51 -41 135 -41zM506 808q-62 0 -108 -29t-67 -74q-22 -45 -31 -120q64 1 130 13q139 27 182 192q-44 18 -106 18zM100 456q0 136 42 231t134 160t237 65
t227 -116v114h192v-910h-192v116q-81 -116 -227 -116q-145 0 -237 65t-134 160t-42 231z" />
    <glyph glyph-name="e" unicode="e" horiz-adv-x="972" 
d="M544 440q-272 0 -272 -184q0 -36 24 -76q45 -76 200 -76q88 0 172 35t130 151h94q-32 -158 -142 -224t-254 -66q-416 0 -416 256q0 88 67 154t192 88q-107 26 -157 80t-50 119t50 116q96 99 314 99q86 0 176 -44t145 -141l-73 -35q-88 116 -248 116q-120 0 -154 -52
q-18 -28 -18 -74t44 -92t176 -46v-104z" />
    <glyph glyph-name="f" unicode="f" horiz-adv-x="884" 
d="M444 808q-127 0 -160 -92v-204q190 42 261 83t71 101q0 112 -172 112zM124 0v716q54 114 139 155t182 41t181 -24t132 -75q50 -51 50 -116t-50 -119t-192 -96l-282 -74v-408h-160z" />
    <glyph glyph-name="g" unicode="g" horiz-adv-x="1096" 
d="M798 584h25q-7 92 -73 158t-202 66q-47 0 -97 -11l1 -7q43 -169 189 -194q71 -12 157 -12zM644 184q24 -80 98 -80q82 0 82 120v256h-12q-258 0 -371 77q-69 47 -109 125l-14 28q-46 -66 -46 -142v-344q0 -120 82 -120q76 0 98 84v140h192v-144zM80 224v344
q0 156 136 250t332 94t332 -94t136 -250v-344q0 -80 -42 -130q-79 -94 -242 -94q-126 0 -184 100q-58 -100 -184 -100q-163 0 -242 94q-42 50 -42 130z" />
    <glyph glyph-name="h" unicode="h" horiz-adv-x="1064" 
d="M696 808q-72 0 -72 -92v-100q60 6 104 33t44 61t-10 54q-21 44 -66 44zM964 716q0 -182 -340 -204v-512h-192v512q-332 24 -332 204q0 80 42 122t108 66q78 -1 93 -64q-51 -62 -51 -116q0 -99 140 -108v100q0 131 136 176q60 20 128 20q268 0 268 -196z" />
    <glyph glyph-name="i" unicode="i" horiz-adv-x="992" 
d="M506 104q74 0 125 41t70 120t19 139q-118 52 -199 52t-135 -26t-84 -74t-30 -92t24 -84t80 -58t130 -18zM496 0q-416 0 -416 256q0 88 54 159t160 108t216 37t208 -42q6 156 -82 238q-56 52 -124 52t-116 -9q-93 -17 -116 -103h-148q0 66 50 117q96 99 314 99
q148 0 240 -65t134 -160t42 -231t-42 -231t-134 -160t-240 -65z" />
    <glyph glyph-name="j" unicode="j" horiz-adv-x="904" 
d="M328 628q0 -44 28 -87q44 -68 214 -103q60 -14 84 -34t6 -56l-232 -348h-220l232 350q-126 18 -215 83t-89 195q0 66 40 137q83 147 320 147q148 0 238 -87t90 -197q0 -73 -56 -105q-26 -15 -64 -15t-64 15q-56 32 -56 105q0 46 22 75t52 38q-41 67 -162 67
q-48 0 -89 -26t-60 -68t-19 -86z" />
    <glyph glyph-name="k" unicode="k" horiz-adv-x="1096" 
d="M644 184q24 -80 98 -80q82 0 82 120v344q0 96 -68 168t-208 72t-208 -72t-68 -168v-344q0 -120 82 -120q76 0 98 84v300h192v-304zM80 224v344q0 156 136 250t332 94t332 -94t136 -250v-344q0 -80 -42 -130q-79 -94 -242 -94q-126 0 -184 100q-58 -100 -184 -100
q-163 0 -242 94q-42 50 -42 130z" />
    <glyph glyph-name="l" unicode="l" horiz-adv-x="864" 
d="M432 0q-156 0 -254 60t-98 204v648h192v-648q0 -80 42 -120t118 -40t118 40t42 120v88h192v-88q0 -144 -98 -204t-254 -60z" />
    <glyph glyph-name="m" unicode="m" horiz-adv-x="904" 
d="M434 0q-132 0 -213 59t-131 181q-10 38 24 53t56 -17q84 -172 252 -172q162 0 201 161q19 79 19 191t-19 191q-39 161 -205 161q-121 0 -162 -67q30 -9 52 -38t22 -71t-15 -68t-41 -41t-64 -15t-64 15q-56 32 -56 105q0 110 90 197t238 87t240 -65t134 -160t42 -231
t-42 -231t-134 -160t-224 -65z" />
    <glyph glyph-name="n" unicode="n" horiz-adv-x="892" 
d="M580 0v500l-292 -292h-168v702h192v-508l302 302l158 -158v-546h-192z" />
    <glyph glyph-name="o" unicode="o" horiz-adv-x="1072" 
d="M536 808q-256 -8 -264 -352q8 -344 264 -352q256 8 264 352q-8 344 -264 352zM536 912q448 -8 456 -456q-8 -448 -456 -456q-448 8 -456 456q8 448 456 456z" />
    <glyph glyph-name="p" unicode="p" horiz-adv-x="744" 
d="M472 0v808h-392v102h584v-910h-192z" />
    <glyph glyph-name="q" unicode="q" horiz-adv-x="992" 
d="M496 104q84 0 135 41t70 120t19 191t-19 191t-70 120t-135 41t-135 -41t-70 -120t-19 -191t19 -191t70 -120t135 -41zM499 0q-145 0 -227 116v-116h-192v910h192v-114q81 116 227 116q145 0 237 -65t134 -160t42 -231t-42 -231t-134 -160t-237 -65z" />
    <glyph glyph-name="r" unicode="r" 
d="M420 502q-30 96 -90 119q-24 9 -38 9q-18 -10 -20 -30q2 -52 38 -72t110 -26zM944 600q0 -180 -332 -204v-396h-192v396q-340 22 -340 204q0 117 89 160q41 20 69 20q124 -18 182 -116v248h192v-412q140 9 140 100q0 62 -51 124q15 63 93 64q66 -24 108 -66t42 -122z" />
    <glyph glyph-name="s" unicode="s" horiz-adv-x="824" 
d="M392 112q88 8 96 124q0 100 -72 163q-112 -55 -114 -163t90 -124zM380 604q68 20 80 124q-4 66 -68 72q-56 -4 -56 -72q-12 -84 44 -124zM392 0q-239 12 -252 236q20 160 215 223l-54 54q-213 -9 -237 127q14 60 70 47q19 -110 119 -110q-69 53 -77 159q22 170 216 176
q204 -19 228 -188q-8 -148 -182 -190l42 -42l79 26q70 15 108 -16q45 -26 77 -110q-20 -60 -72 -24l-41 75q-26 24 -103 -3q106 -94 120 -204q-21 -236 -256 -236z" />
    <glyph glyph-name="t" unicode="t" horiz-adv-x="864" 
d="M592 0v648q0 80 -42 120t-118 40t-118 -40t-42 -120v-88h-192v88q0 144 98 204t254 60t254 -60t98 -204v-648h-192z" />
    <glyph glyph-name="u" unicode="u" horiz-adv-x="1072" 
d="M272 456q0 -266 168 -334v668q-168 -68 -168 -334zM800 456q0 266 -168 334v-668q168 68 168 334zM536 0q-128 0 -238 54t-164 164t-54 238t54 238t164 164t238 54t238 -54t164 -164t54 -238t-54 -238t-164 -164t-238 -54z" />
    <glyph glyph-name="v" unicode="v" horiz-adv-x="992" 
d="M720 256q0 184 -272 184v104q132 0 176 46t44 92t-18 74q-33 51 -136 52q-102 0 -153 -41t-70 -120t-19 -191t19 -191q39 -161 199 -161q161 0 206 76q24 40 24 76zM912 256q0 -256 -416 -256q-148 0 -240 65t-134 160t-42 231t42 231t134 160t215 65t207 -24t132 -75
q50 -51 50 -116t-50 -119t-157 -80q125 -22 192 -88t67 -154z" />
    <glyph glyph-name="w" unicode="w" horiz-adv-x="1096" 
d="M644 184q24 -80 98 -80q82 0 82 120v686h192v-686q0 -80 -42 -130q-79 -94 -242 -94q-126 0 -184 100q-58 -100 -184 -100q-163 0 -242 94q-42 50 -42 130v686h192v-686q0 -120 82 -120q76 0 98 84v300h192v-304z" />
    <glyph glyph-name="x" unicode="x" horiz-adv-x="852" 
d="M576 284q0 44 -31 75t-121 45q-154 18 -247 75t-93 149q0 66 40 137q83 147 320 147q148 0 238 -87t90 -197q0 -73 -56 -105q-26 -15 -64 -15t-64 15q-56 32 -56 105q0 46 22 75t52 38q-41 67 -162 67q-48 0 -89 -26t-60 -68t-19 -86t20 -69q36 -45 159 -56t218 -63
t95 -156q0 -66 -40 -137q-83 -147 -320 -147q-148 0 -238 87t-90 197q0 73 56 105q26 15 64 15t64 -15q56 -32 56 -105q0 -46 -22 -75t-52 -38q41 -67 162 -67q48 0 89 26t60 68t19 86z" />
    <glyph glyph-name="y" unicode="y" horiz-adv-x="1284" 
d="M728 326l42 146q-39 -10 -82 -12zM302 808q-24 0 -45 -7t-37 -27t-15 -47q0 -156 265 -173l-42 138q-6 24 -26 57t-48 46t-52 13zM80 712q0 64 30 110t84 68t130 22t131 -27t100 -76t61 -105l50 -164q72 5 130 18l104 354h192l-82 -280q92 58 131 166l63 -63
q-40 -87 -94 -137t-134 -82l-152 -516h-192l-134 458q-96 6 -202 36t-162 92q-54 62 -54 126z" />
    <glyph glyph-name="z" unicode="z" horiz-adv-x="992" 
d="M486 104q74 0 130 18t80 58t24 84t-30 92q-62 100 -218 100q-82 0 -200 -52q0 -60 19 -139t70 -120t125 -41zM912 256q0 -256 -416 -256q-148 0 -240 65t-134 160t-42 231t42 231t134 160t215 65t207 -24t132 -75q50 -51 50 -117h-148q-23 86 -116 103q-48 9 -116 9
t-124 -52q-88 -81 -82 -238q98 42 208 42t216 -37t160 -108t54 -159z" />
    <glyph glyph-name="braceleft" unicode="{" horiz-adv-x="1160" 
d="M362 104q26 0 52 22q42 36 42 170v192q-84 -14 -134 -63t-50 -119t9 -110t32 -66t49 -26zM365 0q-91 0 -153 35q-132 75 -132 261q0 84 58 158q104 133 318 138v808h192v-808q148 0 237 -37t142 -110t53 -145t-21 -126q-43 -111 -219 -178q-20 16 -52 74q58 46 79 114
t21 113t-26 90q-58 101 -214 101v-192q0 -190 -134 -264q-58 -32 -149 -32z" />
    <glyph glyph-name="bar" unicode="|" horiz-adv-x="1280" 
d="M646 104q30 0 44 24q25 43 -4 98l-42 82l-42 -82q-33 -63 -2 -102q16 -20 46 -20zM852 173q0 -57 -26 -93q-58 -80 -191 -80t-179 89q-20 39 -20 89t44 134l80 160l-480 928h216l348 -764l340 764h216l-472 -928l80 -160q44 -82 44 -139z" />
    <glyph glyph-name="braceright" unicode="}" horiz-adv-x="1148" 
d="M584 104q100 0 172 83t95 229t23 254l-244 34q-190 -16 -268 -96t-78 -216q0 -84 34 -152t100 -102t166 -34zM872 771q-10 252 -68 371q-36 72 -100 117l-74 -451zM340 1061q0 -165 154 -219l76 454q-70 0 -127 -25q-103 -45 -103 -210zM583 0q-139 0 -243 35t-176 128
t-72 231t77 235t219 135q-126 38 -183 121t-57 185t57 179t154 114t228 37t250 -87t174 -256t55 -357t-55 -357t-172 -256t-256 -87z" />
    <glyph glyph-name="asciitilde" unicode="~" horiz-adv-x="1336" 
d="M664 540q239 0 360 -164v1024h192v-1400h-160q-16 106 -56 211t-128 165t-208 60t-208 -60t-128 -165t-56 -211h-192q20 200 114 322t210 170t260 48z" />
    <glyph glyph-name="nonbreakingspace" unicode="&#xa0;" horiz-adv-x="498" 
 />
    <glyph glyph-name="exclamdown" unicode="&#xa1;" horiz-adv-x="624" 
d="M474 96q-16 -206 -162 -244q-146 38 -162 244v318q2 282 122 658h80q120 -376 122 -658v-318zM412 1300q-6 -94 -100 -100q-94 6 -100 100q6 94 100 100q94 -6 100 -100z" />
    <glyph glyph-name="cent" unicode="&#xa2;" horiz-adv-x="972" 
d="M500 812q-94 -4 -160 -77t-80 -243q4 -156 51 -245zM688 643q0 77 76 95q-61 55 -162 67l-218 -650q58 -43 154 -51q82 2 149 22t185 110q20 8 18 -16q-18 -74 -113 -144t-239 -76q-117 4 -193 39l-141 -421h-104l158 474q-173 138 -178 400q10 208 133 321t287 111
q26 -1 37 -3l147 441h104l-153 -457q133 -35 177 -121q34 -58 36 -140q-8 -82 -82 -84q-78 6 -78 83z" />
    <glyph glyph-name="sterling" unicode="&#xa3;" horiz-adv-x="1660" 
d="M284 376q-48 -78 0 -158q28 -34 79 -38q111 -16 153 220q-128 80 -232 -24zM732 904h320v-120h-320v-352l240 -176q192 -168 296 -160q178 -18 160 208h152v-104q-24 -216 -248 -248q-208 -32 -440 176l-200 144q-66 -288 -307 -272q-165 2 -257 128q-48 70 -48 174
t78 192q174 146 390 50v240h-320v120h320v160q24 336 296 368q256 24 352 -176q44 -120 -34 -192h-44q10 190 -178 208q-222 -4 -208 -296v-72z" />
    <glyph glyph-name="currency" unicode="&#xa4;" horiz-adv-x="1408" 
d="M244 700q12 -448 460 -460q448 12 460 460q-12 448 -460 460q-448 -12 -460 -460zM704 1292q240 -6 376 -102l134 134l114 -114l-134 -134q96 -136 102 -376q-6 -240 -102 -376l134 -134l-114 -114l-134 134q-136 -96 -376 -102q-240 6 -376 102l-134 -134l-114 114
l134 134q-96 136 -102 376q6 240 102 376l-134 134l114 114l134 -134q136 96 376 102z" />
    <glyph glyph-name="yen" unicode="&#xa5;" horiz-adv-x="1236" 
d="M80 1400h442l-104 -104l224 -348l224 348l-104 104h442v-52l-168 -52l-314 -488h420v-140h-420v-140h420v-140h-420v-284l168 -52v-52h-496v52l168 52v284h-420v140h420v140h-420v140h420l-314 488l-168 52v52z" />
    <glyph glyph-name="brokenbar" unicode="&#xa6;" horiz-adv-x="440" 
d="M120 620h200v-620h-200v620zM120 1400h200v-620h-200v620z" />
    <glyph glyph-name="section" unicode="&#xa7;" horiz-adv-x="956" 
d="M629 508q49 47 63 126q3 100 -52 162q-40 58 -195 146q-151 -10 -179 -126q-14 -74 41 -125q38 -27 149 -85t173 -98zM101 143h48q79 -194 357 -211q158 27 186 183q3 100 -52 162q-34 69 -429 275q-83 56 -103 130t-7 134q31 158 217 198l-107 57q-83 55 -103 129
t-7 135q41 207 347 213q148 -3 251 -94l20 94l48 -107v-204h-55q-55 211 -267 224q-151 -10 -179 -126q-14 -74 41 -125q41 -30 199 -112t251 -176q107 -118 100 -288q-21 -134 -129 -203q137 -128 129 -316q-38 -240 -351 -270q-195 3 -322 74l-31 -86l-52 106v204z" />
    <glyph glyph-name="dieresis" unicode="&#xa8;" horiz-adv-x="864" 
d="M632 1256q94 -6 100 -100q-6 -94 -100 -100q-94 6 -100 100q6 94 100 100zM132 1156q6 94 100 100q94 -6 100 -100q-6 -94 -100 -100q-94 6 -100 100z" />
    <glyph glyph-name="copyright" unicode="&#xa9;" horiz-adv-x="1676" 
d="M1137 864h-49q-52 176 -248 184q-276 -12 -280 -352q4 -348 256 -352q228 4 304 172l45 -37q-69 -231 -349 -239q-396 12 -408 456q4 440 432 456q122 -4 194 -70l58 58l45 -135v-141zM898 1332q-275 21 -490 -166q-164 -158 -204 -413q-23 -277 164 -492
q158 -164 413 -204q277 -23 492 164q164 159 204 413q23 277 -164 492q-159 164 -415 206zM775 1449q119 5 210 -11q531 -136 611 -679q5 -119 -12 -210q-135 -531 -679 -611q-118 -5 -209 12q-532 135 -611 679q-5 118 11 209q136 532 679 611z" />
    <glyph glyph-name="ordfeminine" unicode="&#xaa;" horiz-adv-x="728" 
d="M80 804h568v-104h-568v104zM445 1086q-13 69 -138 73q-40 -2 -67 -28t-30 -72q4 -41 32 -69t84 -29q114 4 119 64v61zM604 904h-102l-57 26q-35 -24 -119 -26q-106 2 -154 47t-48 115t54 108t129 42q98 -4 138 -50v55q-3 61 -28 91t-82 32q-95 -2 -114 -78h-89
q14 55 71 94q57 38 145 38t150 -38t69 -139v-257l37 -31v-29z" />
    <glyph glyph-name="guillemotleft" unicode="&#xab;" horiz-adv-x="944" 
d="M424 516l336 336h104l-252 -336l252 -336h-104zM80 516l336 336h104l-252 -336l252 -336h-104z" />
    <glyph glyph-name="logicalnot" unicode="&#xac;" horiz-adv-x="1408" 
d="M96 1128h1216v-720h-144v576h-1072v144z" />
    <glyph glyph-name="minus" unicode="&#xad;" horiz-adv-x="1100" 
d="M1050 756v-112h-1000v112h1000z" />
    <glyph glyph-name="minus" unicode="&#x2212;" horiz-adv-x="1100" 
d="M1050 756v-112h-1000v112h1000z" />
    <glyph glyph-name="registered" unicode="&#xae;" horiz-adv-x="1676" 
d="M720 1052v-280h136q112 16 128 140q0 132 -128 140h-136zM720 672v-324l128 -52v-52h-416v52l128 52v704l-128 52v52h428q278 -10 284 -244q-16 -144 -144 -200l184 -364l84 -52v-52h-292l52 52l-188 376h-120zM898 1332q-275 21 -490 -166q-164 -158 -204 -413
q-23 -277 164 -492q158 -164 413 -204q277 -23 492 164q164 159 204 413q23 277 -164 492q-159 164 -415 206zM775 1449q119 5 210 -11q531 -136 611 -679q5 -119 -12 -210q-135 -531 -679 -611q-118 -5 -209 12q-532 135 -611 679q-5 118 11 209q136 532 679 611z" />
    <glyph glyph-name="macron" unicode="&#xaf;" horiz-adv-x="856" 
d="M80 1092v128h696v-128h-696z" />
    <glyph glyph-name="macron" unicode="&#x2c9;" horiz-adv-x="856" 
d="M80 1092v128h696v-128h-696z" />
    <glyph glyph-name="degree" unicode="&#xb0;" horiz-adv-x="844" 
d="M304 1252q-6 -104 100 -134q105 -5 136 98q6 104 -100 133q-105 6 -136 -97zM399 1423q97 6 160 -54q51 -55 56 -112q5 -95 -56 -158q-55 -49 -113 -54q-98 -6 -161 54q-50 55 -56 112q-5 95 56 158q55 49 114 54z" />
    <glyph glyph-name="plusminus" unicode="&#xb1;" horiz-adv-x="1100" 
d="M924 72h-752v128h752v-128zM494 1324h112v-444h444v-112h-444v-444h-112v444h-444v112h444v444z" />
    <glyph glyph-name="twosuperior" unicode="&#xb2;" horiz-adv-x="856" 
d="M281 868h379l38 73h38v-141h-616v68q37 209 326 362q137 66 143 206q-6 189 -165 196q-161 -3 -186 -222h-62l-44 131l38 111l30 -80q44 135 224 140q280 -5 299 -276q-6 -166 -171 -245q-271 -130 -271 -323z" />
    <glyph glyph-name="threesuperior" unicode="&#xb3;" horiz-adv-x="894" 
d="M157 1527q84 178 279 185q309 -5 318 -218q-6 -170 -180 -196q216 -47 221 -242q-11 -248 -359 -256q-327 6 -336 290h69q27 -206 267 -211q225 5 231 177q-6 193 -274 203v70q235 16 241 165q-6 135 -198 140q-150 -7 -227 -135z" />
    <glyph glyph-name="acute" unicode="&#xb4;" horiz-adv-x="752" 
d="M494 1304l-280 -280q-38 -2 -36 36l172 344q40 68 128 32q72 -52 16 -132z" />
    <glyph glyph-name="mu" unicode="&#xb5;" horiz-adv-x="1620" 
d="M584 912h160l-184 -552q14 -252 224 -256q128 6 180 112l232 696h160l-218 -654q6 -150 170 -154q108 2 152 160l80 -80q-50 -176 -246 -184q-176 2 -208 130q-36 -66 -110 -96t-208 -34q-128 6 -189 47t-83 121l-256 -768h-160z" />
    <glyph glyph-name="mu" unicode="&#x3bc;" horiz-adv-x="1620" 
d="M584 912h160l-184 -552q14 -252 224 -256q128 6 180 112l232 696h160l-218 -654q6 -150 170 -154q108 2 152 160l80 -80q-50 -176 -246 -184q-176 2 -208 130q-36 -66 -110 -96t-208 -34q-128 6 -189 47t-83 121l-256 -768h-160z" />
    <glyph glyph-name="paragraph" unicode="&#xb6;" horiz-adv-x="1264" 
d="M1184 1360h-256v-1648h-144v1648h-176v-1648h-144v1000q-376 44 -384 408q8 360 444 384h476l184 -92v-52z" />
    <glyph glyph-name="periodcentered" unicode="&#xb7;" horiz-adv-x="680" 
d="M240 700q0 44 28 72t72 28t72 -28t28 -72t-28 -72t-72 -28t-72 28t-28 72z" />
    <glyph glyph-name="periodcentered" unicode="&#x2219;" horiz-adv-x="680" 
d="M240 700q0 44 28 72t72 28t72 -28t28 -72t-28 -72t-72 -28t-72 28t-28 72z" />
    <glyph glyph-name="cedilla" unicode="&#xb8;" horiz-adv-x="792" 
d="M392 -228h-148l124 248h128l-72 -144q264 -8 268 -236q-4 -232 -304 -240q-248 4 -308 220l48 48q72 -160 260 -164q168 4 172 136q-4 132 -168 132z" />
    <glyph glyph-name="onesuperior" unicode="&#xb9;" horiz-adv-x="636" 
d="M384 1712v-822l124 -42v-48h-380v48l124 42l1 595l-119 -57v36l190 248h60z" />
    <glyph glyph-name="ordmasculine" unicode="&#xba;" horiz-adv-x="728" 
d="M80 804h568v-104h-568v104zM364 1320q-50 -4 -91 -44t-45 -124q4 -84 45 -124t91 -44q50 4 91 44t45 124q-4 84 -45 124t-91 44zM108 1152q6 110 76 176t180 72q110 -6 180 -72t76 -176q-6 -110 -76 -176t-180 -72q-110 6 -180 72t-76 176z" />
    <glyph glyph-name="guillemotright" unicode="&#xbb;" horiz-adv-x="944" 
d="M864 516l-336 -336h-104l252 336l-252 336h104zM520 516l-336 -336h-104l252 336l-252 336h104z" />
    <glyph glyph-name="onequarter" unicode="&#xbc;" horiz-adv-x="1456" 
d="M1032 119v232l-208 -232h208zM1032 46h-368l497 562v-489h112l42 73h16v-146h-170v-260l124 -42v-48h-377v48l124 42v260zM180 -184l876 1752h184l-876 -1752h-184zM384 1712v-822l124 -42v-48h-380v48l124 42l1 595l-119 -57v36l190 248h60z" />
    <glyph glyph-name="onehalf" unicode="&#xbd;" horiz-adv-x="1588" 
d="M1005 -236h379l38 73h38v-141h-616v68q37 209 326 362q137 66 143 206q-6 189 -165 196q-161 -3 -186 -222h-62l-44 131l38 111l30 -80q44 135 224 140q280 -5 299 -276q-6 -166 -171 -245q-271 -130 -271 -323zM180 -184l876 1752h184l-876 -1752h-184zM384 1712v-822
l124 -42v-48h-380v48l124 42l1 595l-119 -57v36l190 248h60z" />
    <glyph glyph-name="threequarters" unicode="&#xbe;" horiz-adv-x="1616" 
d="M1220 119v232l-208 -232h208zM1220 46h-368l497 562v-489h112l42 73h16v-146h-170v-260l124 -42v-48h-377v48l124 42v260zM372 -184l876 1752h184l-876 -1752h-184zM157 1527q84 178 279 185q309 -5 318 -218q-6 -170 -180 -196q216 -47 221 -242q-11 -248 -359 -256
q-327 6 -336 290h69q27 -206 267 -211q225 5 231 177q-6 193 -274 203v70q235 16 241 165q-6 135 -198 140q-150 -7 -227 -135z" />
    <glyph glyph-name="questiondown" unicode="&#xbf;" horiz-adv-x="988" 
d="M918 236q-6 -332 -426 -352q-398 20 -412 348q14 352 316 396v312l68 136q28 30 56 0l68 -136v-368q-306 -44 -316 -340q10 -234 220 -244q248 8 280 160q-50 26 -54 88q6 94 100 100q94 -6 100 -100zM592 1300q-6 -94 -100 -100q-94 6 -100 104q6 90 100 96
q94 -6 100 -100z" />
    <glyph glyph-name="Agrave" unicode="&#xc0;" horiz-adv-x="1360" 
d="M1052 1400h192v-1400h-104l-382 382v-382h-104l-573 573l77 155l408 -408v253l78 155l408 -408v1080z" />
    <glyph glyph-name="Aacute" unicode="&#xc1;" horiz-adv-x="1152" 
d="M587 1296q-103 0 -167 -54q48 -202 128 -282q128 -128 328 -140q2 24 -20 167t-94 226t-175 83zM576 104q304 0 304 596v16q-112 12 -206 38t-196 100t-167 205q-39 -161 -39 -329t23 -314t95 -229t186 -83zM574 0q-150 0 -267 87t-172 256t-55 357t55 357t174 256
t267 87t267 -87t174 -256t55 -357t-55 -357t-174 -256t-269 -87z" />
    <glyph glyph-name="Acircumflex" unicode="&#xc2;" horiz-adv-x="920" 
d="M608 1400h192v-1400h-104l-573 573l77 155l408 -408v1080z" />
    <glyph glyph-name="Atilde" unicode="&#xc3;" horiz-adv-x="1160" 
d="M362 104q26 0 52 22q42 36 42 170v192q-84 -14 -134 -63t-50 -119t9 -110t32 -66t49 -26zM365 0q-91 0 -153 35q-132 75 -132 261q0 84 58 158q104 133 318 138v808h192v-808q148 0 237 -37t142 -110t53 -145t-21 -126q-43 -111 -219 -178q-20 16 -52 74q58 46 79 114
t21 113t-26 90q-58 101 -214 101v-192q0 -190 -134 -264q-58 -32 -149 -32z" />
    <glyph glyph-name="Adieresis" unicode="&#xc4;" horiz-adv-x="609" 
d="M232 1304q-56 80 16 132q88 36 128 -32l172 -344q2 -38 -36 -36z" />
    <glyph glyph-name="Aring" unicode="&#xc5;" horiz-adv-x="1431" 
d="M648 572q138 0 184 116v220l-30 30q-50 38 -124 38t-118 -56t-44 -142q0 -206 132 -206zM722 1400q274 0 426 -172t152 -420q0 -126 -76 -247t-170 -121t-186 104q-96 -104 -226 -104t-200 97t-70 243t90 221t230 75q54 0 140 -28l112 -36v-324q0 -36 27 -76t85 -40
q52 0 76 80t24 156q0 212 -108 350t-326 138t-358 -156t-140 -456q0 -252 110 -416t378 -164q192 0 310 78t186 212l100 -50q-60 -136 -208 -240t-388 -104q-340 0 -486 192t-146 492q0 352 184 534t458 182z" />
    <glyph glyph-name="AE" unicode="&#xc6;" horiz-adv-x="568" 
d="M184 488q0 44 28 72t72 28t72 -28t28 -72t-28 -72t-72 -28t-72 28t-28 72zM184 912q0 44 28 72t72 28t72 -28t28 -72t-28 -72t-72 -28t-72 28t-28 72z" />
    <glyph glyph-name="Ccedilla" unicode="&#xc7;" horiz-adv-x="1850" 
d="M1042 520l138 360h-372l-138 -360h372zM857 1400h152l-147 -380h372l147 380h152l-147 -380h384l-54 -140h-384l-138 -360h384l-55 -140h-383l-147 -380h-152l147 380h-372l-147 -380h-152l147 380h-384l54 140h384l138 360h-384l54 140h384z" />
    <glyph glyph-name="Egrave" unicode="&#xc8;" horiz-adv-x="648" 
 />
    <glyph glyph-name="Eacute" unicode="&#xc9;" horiz-adv-x="1052" 
d="M440 1397q89 7 164 -12v183h88v-216q49 -25 92 -64l24 112l56 -128v-240h-64q-32 122 -108 188v-429q94 -62 160 -131q124 -140 116 -340q-35 -228 -276 -296v-196h-88v177q-21 -3 -44 -5q-63 1 -120 8v-180h-88v196q-94 22 -168 64l-36 -100l-60 124v240h56
q58 -144 208 -205v615q-63 35 -136 74q-98 64 -121 152t-7 160q38 191 264 237v183h88v-171zM604 844v428q-52 20 -116 24q-26 -2 -48 -6v-358q50 -28 96 -52q47 -24 68 -36zM352 984v272q-55 -37 -72 -108q-16 -88 48 -148q9 -7 24 -16zM692 542v-381q66 55 84 159
q4 118 -60 192q-6 13 -24 30zM604 611q-64 44 -164 102v-593q55 -12 120 -16q23 4 44 10v497z" />
    <glyph glyph-name="Ecircumflex" unicode="&#xca;" horiz-adv-x="1336" 
d="M664 540q239 0 360 -164v1024h192v-1400h-160q-16 106 -56 211t-128 165t-208 60t-208 -60t-128 -165t-56 -211h-192q20 200 114 322t210 170t260 48z" />
    <glyph glyph-name="Edieresis" unicode="&#xcb;" horiz-adv-x="952" 
d="M440 1192l-336 -168l-8 8l344 344l344 -344l-8 -8z" />
    <glyph glyph-name="Igrave" unicode="&#xcc;" horiz-adv-x="234" 
 />
    <glyph glyph-name="Iacute" unicode="&#xcd;" horiz-adv-x="234" 
 />
    <glyph glyph-name="Icircumflex" unicode="&#xce;" horiz-adv-x="840" 
d="M324 0v887l-244 105v144l244 -105v369h192v-451l244 -105v-144l-244 105v-805h-192z" />
    <glyph glyph-name="Idieresis" unicode="&#xcf;" horiz-adv-x="234" 
 />
    <glyph glyph-name="Eth" unicode="&#xd0;" horiz-adv-x="1040" 
d="M80 0v1400h192v-1296h688v-104h-880z" />
    <glyph glyph-name="Ntilde" unicode="&#xd1;" horiz-adv-x="1272" 
d="M100 0v1400h192v-1180l688 1180h192v-1400h-192v1180l-688 -1180h-192z" />
    <glyph glyph-name="Ograve" unicode="&#xd2;" horiz-adv-x="696" 
 />
    <glyph glyph-name="Oacute" unicode="&#xd3;" horiz-adv-x="696" 
 />
    <glyph glyph-name="Ocircumflex" unicode="&#xd4;" horiz-adv-x="1336" 
d="M672 860q-239 0 -360 164v-1024h-192v1400h160q16 -106 56 -211t128 -165t208 -60t208 60t128 165t56 211h192q-20 -200 -114 -322t-210 -170t-260 -48z" />
    <glyph glyph-name="Otilde" unicode="&#xd5;" horiz-adv-x="1148" 
d="M584 104q100 0 172 83t95 229t23 254l-244 34q-190 -16 -268 -96t-78 -216q0 -84 34 -152t100 -102t166 -34zM872 771q-10 252 -68 371q-36 72 -100 117l-74 -451zM340 1061q0 -165 154 -219l76 454q-70 0 -127 -25q-103 -45 -103 -210zM583 0q-139 0 -243 35t-176 128
t-72 231t77 235t219 135q-126 38 -183 121t-57 185t57 179t154 114t228 37t250 -87t174 -256t55 -357t-55 -357t-172 -256t-256 -87z" />
    <glyph glyph-name="Odieresis" unicode="&#xd6;" horiz-adv-x="1664" 
d="M1362 616q-208 -8 -222 -312q4 -196 86 -200q208 8 222 312q-4 196 -86 200zM1362 720q206 -8 226 -304q-6 -166 -90 -289t-272 -127q-206 8 -226 304q6 166 90 289t272 127zM442 1392q-208 -8 -222 -312q4 -196 86 -200q208 8 222 312q-4 196 -86 200zM306 776
q-206 8 -226 304q6 166 90 289t272 127q138 -8 186 -126q338 4 538 206h184l-876 -1752h-184l784 1566q-132 -108 -416 -114q7 -41 10 -84q-6 -166 -90 -289t-272 -127z" />
    <glyph glyph-name="multiply" unicode="&#xd7;" horiz-adv-x="1368" 
d="M80 1200h192l404 -404l404 404h192l-500 -500l500 -500h-192l-404 404l-404 -404h-192l500 500z" />
    <glyph glyph-name="Oslash" unicode="&#xd8;" horiz-adv-x="566" 
d="M272 400q76 0 113 -62t37 -152q-8 -148 -150 -222q-30 -14 -43 4t9 44q70 57 82 141q-28 -9 -54 -9t-58 16t-48 48t-16 64t16 64t48 48t64 16zM272 912q32 0 64 -16t48 -48t16 -64t-16 -64t-48 -48t-64 -16t-64 16t-48 48t-16 64t16 64t48 48t64 16z" />
    <glyph glyph-name="Ugrave" unicode="&#xd9;" horiz-adv-x="660" 
 />
    <glyph glyph-name="Uacute" unicode="&#xda;" horiz-adv-x="660" 
 />
    <glyph glyph-name="Ucircumflex" unicode="&#xdb;" horiz-adv-x="1016" 
d="M508 1296q-72 0 -131 -25t-82 -77t-23 -139t59 -154t231 -93q71 -12 142 -18v352q-14 74 -69 114t-127 40zM704 0v680q-206 28 -358 75t-209 130t-57 185t57 179q112 151 367 151q92 0 190 -58t160 -183l42 -85v-1074h-192z" />
    <glyph glyph-name="Udieresis" unicode="&#xdc;" horiz-adv-x="1376" 
d="M928 628q-104 0 -162 -74l170 -242q96 92 98 194t-106 122zM496 720l-168 -168q-54 -66 -56 -160q2 -272 232 -280q172 4 292 100l-140 236l-104 -104l-64 104l108 108zM568 1300q-146 -6 -156 -80q-4 -40 24 -92l92 -168l136 136q30 32 39 58t-3 62q-46 76 -132 84z
M1296 -96h-320l-112 184q-116 -88 -360 -88q-412 8 -424 384q4 170 124 284l204 204l-108 184q-42 74 -44 136q14 224 312 232q104 0 208 -80q76 -70 76 -196q-2 -84 -56 -144l-192 -192l94 -150q66 90 230 102q228 -12 240 -260q-20 -196 -152 -320q120 -180 280 -228v-52z
" />
    <glyph glyph-name="Yacute" unicode="&#xdd;" horiz-adv-x="526" 
 />
    <glyph glyph-name="Thorn" unicode="&#xde;" horiz-adv-x="1280" 
d="M646 104q30 0 44 24q25 43 -4 98l-42 82l-42 -82q-33 -63 -2 -102q16 -20 46 -20zM852 173q0 -57 -26 -93q-58 -80 -191 -80t-179 89q-20 39 -20 89t44 134l80 160l-480 928h216l348 -764l340 764h216l-472 -928l80 -160q44 -82 44 -139z" />
    <glyph glyph-name="germandbls" unicode="&#xdf;" horiz-adv-x="1008" 
d="M80 -104v1056q8 312 232 416q208 72 368 0q184 -48 248 -240q0 -256 -136 -312l-136 -80l136 -104q160 -144 136 -304q0 -216 -176 -312q-152 -104 -368 8l-88 112l16 120q128 -200 288 -152q168 32 168 208q16 128 -88 272q-88 88 -232 160q320 128 336 304
q-8 136 -136 216q-128 64 -256 -16q-120 -112 -120 -408v-944h-192z" />
    <glyph glyph-name="agrave" unicode="&#xe0;" horiz-adv-x="1240" 
d="M928 910h192v-910h-168l-292 292v-292h-168l-412 412l86 84l302 -302v144l158 158l302 -302v716z" />
    <glyph glyph-name="aacute" unicode="&#xe1;" horiz-adv-x="1072" 
d="M554 808q-70 0 -114 -18q43 -169 189 -194q71 -12 157 -12q-22 116 -92 170t-140 54zM536 104q78 0 141 42q123 82 123 310v24q-258 0 -371 77q-69 47 -109 125q-48 -92 -48 -211t30 -201t93 -124t141 -42zM536 0q-128 0 -238 54t-164 164t-54 238t54 238t164 164t238 54
t238 -54t164 -164t54 -238t-54 -238t-164 -164t-238 -54z" />
    <glyph glyph-name="acircumflex" unicode="&#xe2;" horiz-adv-x="780" 
d="M468 910h192v-910h-168l-411 411l85 85l302 -302v716z" />
    <glyph glyph-name="atilde" unicode="&#xe3;" horiz-adv-x="1064" 
d="M440 196v100q-60 -6 -104 -33t-44 -61t10 -54q21 -43 66 -44q72 0 72 92zM772 188q0 99 -140 108v-100q0 -131 -136 -176q-60 -20 -128 -20q-268 0 -268 196q0 182 340 204v510h192v-510q332 -24 332 -204q0 -80 -42 -122t-108 -66q-78 1 -93 64q51 62 51 116z" />
    <glyph glyph-name="adieresis" unicode="&#xe4;" 
d="M504 352q148 0 208 -72v630h192v-910h-168q-20 157 -110 214q-54 34 -122 34t-122 -34q-90 -57 -110 -214h-192q30 132 99 214t150 110t175 28z" />
    <glyph glyph-name="aring" unicode="&#xe5;" horiz-adv-x="925" 
d="M296 1136q-128 0 -188 -112h-28q8 252 216 256q80 0 156 -44t156 -44q128 0 188 112h28q-8 -252 -216 -256q-80 0 -156 44t-156 44z" />
    <glyph glyph-name="ae" unicode="&#xe6;" horiz-adv-x="928" 
d="M80 700l620 620h148l-620 -620l620 -620h-148z" />
    <glyph glyph-name="ccedilla" unicode="&#xe7;" horiz-adv-x="1096" 
d="M900 1368v-80l-224 -224h296l56 -56l-56 -56h-296l224 -224v-80h-80l-224 224v-296l-56 -56l-56 56v296l-224 -224h-80v80l224 224h-296l-56 56l56 56h296l-224 224v80h80l224 -224v296l56 56l56 -56v-296l224 224h80z" />
    <glyph glyph-name="egrave" unicode="&#xe8;" horiz-adv-x="912" 
d="M832 560h-752v128h752v-128z" />
    <glyph glyph-name="eacute" unicode="&#xe9;" horiz-adv-x="1208" 
d="M40 -176l876 1752h184l-876 -1752h-184z" />
    <glyph glyph-name="ecircumflex" unicode="&#xea;" 
d="M504 352q148 0 208 -72v630h192v-910h-168q-20 157 -110 214q-54 34 -122 34t-122 -34q-90 -57 -110 -214h-192q30 132 99 214t150 110t175 28z" />
    <glyph glyph-name="edieresis" unicode="&#xeb;" horiz-adv-x="1472" 
d="M-12 -152h1496v-192h-1496v192z" />
    <glyph glyph-name="igrave" unicode="&#xec;" horiz-adv-x="1100" 
d="M494 1200h112v-444h444v-112h-444v-444h-112v444h-444v112h444v444z" />
    <glyph glyph-name="iacute" unicode="&#xed;" horiz-adv-x="1100" 
d="M110 550h880v-152h-880v152zM110 862h880v-152h-880v152z" />
    <glyph glyph-name="icircumflex" unicode="&#xee;" horiz-adv-x="724" 
d="M268 0v590l-184 92v120l184 -92v200h192v-296l184 -92v-120l-184 92v-494h-192z" />
    <glyph glyph-name="idieresis" unicode="&#xef;" horiz-adv-x="700" 
d="M192 1572h468v-120h-288v-1504h288v-120h-468v1744z" />
    <glyph glyph-name="eth" unicode="&#xf0;" horiz-adv-x="744" 
d="M80 0v912h192v-808h392v-104h-584z" />
    <glyph glyph-name="ntilde" unicode="&#xf1;" horiz-adv-x="1040" 
d="M100 0v912h192v-672l488 672h160v-912h-192v672l-488 -672h-160z" />
    <glyph glyph-name="ograve" unicode="&#xf2;" horiz-adv-x="700" 
d="M508 -172h-468v120h288v1504h-288v120h468v-1744z" />
    <glyph glyph-name="oacute" unicode="&#xf3;" horiz-adv-x="676" 
d="M676 1572v-140h-108q-168 0 -188 -192q-4 -124 96 -226t88 -166q-4 -48 -40 -80l-84 -68l84 -68q36 -32 40 -80q12 -64 -88 -166t-96 -226q20 -192 188 -192h108v-140h-128q-256 48 -292 332q0 124 66 210t58 182q-48 72 -152 104l-88 44l88 44q104 32 152 104
q8 96 -58 182t-66 210q36 284 292 332h128z" />
    <glyph glyph-name="ocircumflex" unicode="&#xf4;" 
d="M520 558q-148 0 -208 72v-630h-192v910h168q20 -157 110 -214q54 -34 122 -34t122 34q90 57 110 214h192q-30 -132 -99 -214t-150 -110t-175 -28z" />
    <glyph glyph-name="otilde" unicode="&#xf5;" horiz-adv-x="992" 
d="M272 256q0 -36 24 -76q45 -76 206 -76t199 161q19 79 19 139q-82 28 -176 36q-272 0 -272 -184zM718 518q2 50 -12 118t-46 104t-58 46l-58 -242q87 -9 174 -26zM324 682q0 -46 39 -85t69 -39l64 250q-120 0 -154 -52q-18 -28 -18 -74zM496 0q-416 0 -416 256
q0 88 67 154t192 88q-107 26 -157 80t-50 119t50 116q96 99 314 99q148 0 240 -65t134 -160t42 -231t-42 -231t-134 -160t-240 -65z" />
    <glyph glyph-name="odieresis" unicode="&#xf6;" horiz-adv-x="676" 
d="M0 -172v140h108q168 0 188 192q4 124 -96 226t-88 166q4 48 40 80l84 68l-84 68q-36 32 -40 80q-12 64 88 166t96 226q-20 192 -188 192h-108v140h128q256 -48 292 -332q0 -124 -66 -210t-58 -182q48 -72 152 -104l88 -44l-88 -44q-104 -32 -152 -104q-8 -96 58 -182
t66 -210q-36 -284 -292 -332h-128z" />
    <glyph glyph-name="divide" unicode="&#xf7;" horiz-adv-x="1100" 
d="M450 396q0 44 28 72t72 28t72 -28t28 -72t-28 -72t-72 -28t-72 28t-28 72zM926 636h-752v128h752v-128zM450 1004q0 44 28 72t72 28t72 -28t28 -72t-28 -72t-72 -28t-72 28t-28 72z" />
    <glyph glyph-name="oslash" unicode="&#xf8;" horiz-adv-x="928" 
d="M848 700l-620 -620h-148l620 620l-620 620h148z" />
    <glyph glyph-name="ugrave" unicode="&#xf9;" horiz-adv-x="1208" 
d="M1100 -176h-184l-876 1752h184z" />
    <glyph glyph-name="uacute" unicode="&#xfa;" horiz-adv-x="464" 
d="M172 1400h120v-1400h-120v1400z" />
    <glyph glyph-name="ucircumflex" unicode="&#xfb;" horiz-adv-x="884" 
d="M272 696q0 -60 71 -101t261 -83v204q-33 92 -156 92q-124 0 -158 -52q-18 -28 -18 -60zM604 0v408l-282 74q-142 42 -192 96t-50 119t50 116q96 99 314 99q96 0 181 -41t139 -155v-716h-160z" />
    <glyph glyph-name="udieresis" unicode="&#xfc;" horiz-adv-x="868" 
d="M440 1192l-336 -168l-8 8l344 344l344 -344l-8 -8z" />
    <glyph glyph-name="yacute" unicode="&#xfd;" horiz-adv-x="393" 
 />
    <glyph glyph-name="thorn" unicode="&#xfe;" horiz-adv-x="888" 
d="M413 127q0 -23 25 -23t35 8q9 8 9 14t-14 34l-21 43l-19 -37q-15 -27 -15 -39zM443 0q-49 0 -87 32t-39 78q0 46 24 98l50 101l-311 603h192l176 -472l168 472h192l-302 -603l54 -103q28 -49 28 -87t-16 -63q-16 -24 -48 -40t-81 -16z" />
    <glyph glyph-name="ydieresis" unicode="&#xff;" horiz-adv-x="393" 
 />
    <glyph glyph-name="dotlessi" unicode="&#x131;" horiz-adv-x="688" 
 />
    <glyph glyph-name="Lslash" unicode="&#x141;" horiz-adv-x="570" 
 />
    <glyph glyph-name="lslash" unicode="&#x142;" horiz-adv-x="213" 
 />
    <glyph glyph-name="OE" unicode="&#x152;" horiz-adv-x="954" 
 />
    <glyph glyph-name="oe" unicode="&#x153;" horiz-adv-x="756" 
 />
    <glyph glyph-name="Scaron" unicode="&#x160;" horiz-adv-x="1152" 
d="M576 104q114 0 186 83t95 229t23 284t-23 284t-95 229t-186 83t-186 -83t-95 -229t-23 -284t23 -284t95 -229t186 -83zM576 0q-210 0 -304 192v-192h-192v1400h192v-192q94 192 304 192q148 0 267 -87t174 -256t55 -357t-55 -357t-174 -256t-267 -87z" />
    <glyph glyph-name="scaron" unicode="&#x161;" horiz-adv-x="992" 
d="M496 104q84 0 135 41t70 120t19 191t-19 191t-70 120t-135 41t-135 -41t-70 -120t-19 -191t19 -191t70 -120t135 -41zM499 0q-145 0 -227 116v-116h-192v910h192v-114q81 116 227 116q145 0 237 -65t134 -160t42 -231t-42 -231t-134 -160t-237 -65z" />
    <glyph glyph-name="Ydieresis" unicode="&#x178;" horiz-adv-x="526" 
 />
    <glyph glyph-name="Zcaron" unicode="&#x17d;" horiz-adv-x="1028" 
d="M756 388q0 80 -30 136q-49 92 -210 124q-116 24 -216 60t-160 114t-60 198t84 210q159 170 412 170q148 0 254 -90t118 -278q0 -101 -73 -141q-35 -19 -87 -19t-87 19q-73 40 -73 131q0 139 108 164q-38 110 -160 110q-64 0 -141 -34t-120 -102t-43 -148t26 -130
q45 -87 218 -130q300 -72 382 -184q50 -68 50 -188t-84 -210q-159 -170 -412 -170q-148 0 -254 90t-118 278q0 101 73 141q35 19 87 19t87 -19q73 -40 73 -131q0 -139 -108 -164q38 -110 160 -110q64 0 141 34t120 102t43 148z" />
    <glyph glyph-name="zcaron" unicode="&#x17e;" horiz-adv-x="852" 
d="M576 284q0 44 -31 75t-121 45q-154 18 -247 75t-93 149q0 66 40 137q83 147 320 147q148 0 238 -87t90 -197q0 -73 -56 -105q-26 -15 -64 -15t-64 15q-56 32 -56 105q0 46 22 75t52 38q-41 67 -162 67q-48 0 -89 -26t-60 -68t-19 -86t20 -69q36 -45 159 -56t218 -63
t95 -156q0 -66 -40 -137q-83 -147 -320 -147q-148 0 -238 87t-90 197q0 73 56 105q26 15 64 15t64 -15q56 -32 56 -105q0 -46 -22 -75t-52 -38q41 -67 162 -67q48 0 89 26t60 68t19 86z" />
    <glyph glyph-name="florin" unicode="&#x192;" horiz-adv-x="1057" 
d="M850 1470q70 0 110 -29t41 -69q0 -40 -25 -64q-24 -24 -60 -24t-72 45t-53 45q-53 0 -87 -89t-77 -363h198l-22 -84h-193q-121 -759 -175 -933q-54 -175 -141 -261t-200 -86q-64 0 -106 30t-41 70t25 66q24 24 66 24t69 -44t47 -44q90 0 232 882l48 296h-196l26 84h189
q43 264 147 406t250 142z" />
    <glyph glyph-name="circumflex" unicode="&#x2c6;" horiz-adv-x="920" 
d="M608 1400h192v-1400h-104l-573 573l77 155l408 -408v1080z" />
    <glyph glyph-name="caron" unicode="&#x2c7;" 
d="M291 1489l221 -197l221 197h74l-229 -350h-134l-227 350h74z" />
    <glyph glyph-name="breve" unicode="&#x2d8;" 
d="M512 1174q-258 0 -301 278h65q18 -71 72 -102t163 -31q108 -1 163 31t71 102h66q-41 -278 -299 -278z" />
    <glyph glyph-name="dotaccent" unicode="&#x2d9;" 
d="M395 1301q0 49 35 85q34 36 82 35q48 1 84 -35t35 -85q0 -49 -34 -82t-85 -33t-84 33t-33 82z" />
    <glyph glyph-name="ring" unicode="&#x2da;" horiz-adv-x="844" 
d="M304 1252q-6 -104 100 -134q105 -5 136 98q6 104 -100 133q-105 6 -136 -97zM399 1423q97 6 160 -54q51 -55 56 -112q5 -95 -56 -158q-55 -49 -113 -54q-98 -6 -161 54q-50 55 -56 112q-5 95 56 158q55 49 114 54z" />
    <glyph glyph-name="ogonek" unicode="&#x2db;" 
d="M543 -346q70 0 125 72l28 -17q-36 -75 -93 -117t-127 -41t-114 43t-43 111q0 165 261 330h47q-83 -63 -129 -131t-45 -126q-1 -60 23 -92t67 -32z" />
    <glyph glyph-name="tilde" unicode="&#x2dc;" horiz-adv-x="804" 
d="M664 540q239 0 360 -164v1024h192v-1400h-160q-16 106 -56 211t-128 165t-208 60t-208 -60t-128 -165t-56 -211h-192q20 200 114 322t210 170t260 48z" />
    <glyph glyph-name="hungarumlaut" unicode="&#x2dd;" 
d="M550 1499q28 1 51 -21q22 -22 22 -54t-56 -89l-184 -196h-61l133 276q39 84 95 84zM841 1499q29 0 49 -20t21 -47q0 -49 -63 -103l-221 -190h-60l174 284q47 76 100 76z" />
    <glyph glyph-name="Delta" unicode="&#x394;" horiz-adv-x="1350" 
d="M666 1497h30l600 -1497h-1243zM602 1174l-389 -957h768z" />
    <glyph glyph-name="Delta" unicode="&#x2206;" horiz-adv-x="1350" 
d="M666 1497h30l600 -1497h-1243zM602 1174l-389 -957h768z" />
    <glyph glyph-name="Omega" unicode="&#x3a9;" horiz-adv-x="1569" 
d="M406 862q0 -422 243 -862h-506l-116 389h61l59 -184h312v26q-165 183 -237 335t-72 311q0 267 183 443t453 177q270 0 452 -177t183 -443q1 -158 -71 -309t-238 -337v-26h311l60 184h61l-117 -389h-505q243 437 243 862q1 559 -379 559t-380 -559z" />
    <glyph glyph-name="Omega" unicode="&#x2126;" horiz-adv-x="1569" 
d="M406 862q0 -422 243 -862h-506l-116 389h61l59 -184h312v26q-165 183 -237 335t-72 311q0 267 183 443t453 177q270 0 452 -177t183 -443q1 -158 -71 -309t-238 -337v-26h311l60 184h61l-117 -389h-505q243 437 243 862q1 559 -379 559t-380 -559z" />
    <glyph glyph-name="pi" unicode="&#x3c0;" horiz-adv-x="1389" 
d="M379 -43q-84 0 -84 111q0 59 76 260t112 358h-188q-91 0 -135 -42t-68 -152h-57q40 218 124 306t251 87h960l-43 -199h-340q-33 -137 -37 -401q-1 -58 -2 -87q-2 -125 -32 -183t-91 -58q-86 0 -86 111q0 58 77 259t114 359h-387q-41 -166 -41 -487q-4 -127 -33 -185
t-90 -57z" />
    <glyph glyph-name="endash" unicode="&#x2013;" 
d="M0 571h1024v-147h-1024v147z" />
    <glyph glyph-name="emdash" unicode="&#x2014;" horiz-adv-x="2048" 
d="M0 559h2048v-147h-2048v147z" />
    <glyph glyph-name="quoteleft" unicode="&#x2018;" horiz-adv-x="528" 
d="M227 1133v-11l25 2q59 0 92 -31t33 -87t-35 -90q-34 -34 -92 -35q-58 0 -94 52q-36 51 -35 149q0 209 176 388l70 -55q-140 -152 -140 -282z" />
    <glyph glyph-name="quoteright" unicode="&#x2019;" horiz-adv-x="528" 
d="M274 1210v17l-24 -2q-59 0 -92 32t-33 88q0 57 35 91q34 34 92 34t94 -52t35 -150q0 -209 -176 -387l-70 55q139 152 139 274z" />
    <glyph glyph-name="quotesinglbase" unicode="&#x201a;" horiz-adv-x="528" 
d="M125 102q0 56 35 90q34 34 92 35q58 0 94 -51q36 -50 35 -148q0 -207 -176 -388l-70 53q67 72 103 146t36 130v17l-26 -2q-59 0 -91 31t-32 87z" />
    <glyph glyph-name="quotedblleft" unicode="&#x201c;" horiz-adv-x="901" 
d="M600 1133v-11l25 2q59 0 92 -31t33 -87t-35 -90t-93 -35q-58 0 -94 52t-36 149q0 208 178 388l69 -55q-139 -153 -139 -282zM229 1133v-11l25 2q59 0 91 -31t32 -87t-34 -90q-33 -34 -91 -35q-58 0 -94 52q-36 51 -37 149q0 209 176 388l72 -55q-140 -152 -140 -282z" />
    <glyph glyph-name="quotedblright" unicode="&#x201d;" horiz-adv-x="901" 
d="M647 1210v17l-24 -2q-59 0 -92 32t-33 88q0 57 34 91t92 34t94 -52t36 -150q0 -209 -176 -387l-72 55q141 154 141 274zM276 1210q0 5 -2 17l-24 -2q-58 0 -90 32t-33 88q0 57 34 91q33 34 91 34t94 -52t37 -150q0 -209 -176 -387l-72 55q141 154 141 274z" />
    <glyph glyph-name="quotedblbase" unicode="&#x201e;" horiz-adv-x="901" 
d="M647 -31v17l-26 -2q-59 0 -91 31t-32 87t34 90t92 35t94 -51t36 -149q0 -207 -176 -387l-72 53q141 156 141 276zM127 102q0 56 34 90q33 34 91 35t94 -51t37 -149q0 -207 -176 -387l-72 53q67 73 104 147t37 129q0 5 -2 17l-26 -2q-58 0 -90 31t-31 87z" />
    <glyph glyph-name="dagger" unicode="&#x2020;" 
d="M487 934v4q-2 15 -2 29q-73 -3 -161 -37t-128 -35q-40 0 -70 23q-30 22 -30 66t30 72t66 29q37 1 124 -35t155 -36h14q2 16 2 49q1 98 -37 194t-38 126q0 29 28 57t72 28t70 -28q28 -28 28 -58q0 -29 -38 -124t-37 -193q0 -33 2 -49h22q63 0 149 34t122 35q36 0 66 -28
t30 -71t-28 -67t-68 -24t-127 36q-88 36 -168 36q2 -237 92 -367q-84 -340 -84 -827v-37h-58q0 508 -88 864q90 152 90 334z" />
    <glyph glyph-name="daggerdbl" unicode="&#x2021;" 
d="M487 934v4q-2 15 -2 29q-73 -3 -161 -37t-128 -35q-40 0 -70 23q-30 22 -30 66t30 72t66 29q37 1 124 -35t155 -36h14q2 16 2 49q1 98 -37 194t-38 126q0 29 28 57t72 28t70 -28q28 -28 28 -58q0 -29 -36 -124t-37 -193v-49h22q63 0 149 34t122 35q36 0 66 -28t30 -71
t-28 -67t-68 -24t-126 36q-88 36 -167 36q0 -235 90 -369q-90 -155 -90 -324v-42q69 1 161 36t132 35q42 -1 69 -25t27 -66t-29 -71q-29 -28 -67 -28q-38 -1 -124 35q-88 36 -153 36h-14q-2 -18 -2 -84q-1 -66 37 -160q38 -95 38 -125q0 -31 -28 -59t-72 -28t-71 29t-27 59
t36 124q36 95 35 193l2 33v10q0 2 -2 6h-32q-52 0 -136 -34t-123 -35q-38 0 -68 28t-30 71t30 67t68 24t126 -36t165 -36q0 235 -88 369q90 152 90 334z" />
    <glyph glyph-name="bullet" unicode="&#x2022;" horiz-adv-x="1208" 
d="M307 762q0 123 87 209q88 86 210 86q122 -1 208 -87t87 -208t-87 -210t-210 -87q-122 0 -209 87q-86 87 -86 210z" />
    <glyph glyph-name="ellipsis" unicode="&#x2026;" horiz-adv-x="2048" 
d="M1698 227q53 -1 90 -37t37 -89t-37 -91t-90 -37q-53 -1 -90 37t-37 91t37 89t90 37zM1014 227q53 -1 90 -37t37 -89t-37 -91t-90 -37q-53 -1 -90 37t-37 91t37 89t90 37zM332 227q53 -1 90 -37t37 -89t-37 -91t-90 -37q-53 -1 -90 37t-37 91t37 89t90 37z" />
    <glyph glyph-name="perthousand" unicode="&#x2030;" horiz-adv-x="2384" 
d="M587 1296q-103 0 -167 -54q48 -202 128 -282q128 -128 328 -140q2 24 -20 167t-94 226t-175 83zM576 104q304 0 304 596v16q-112 12 -206 38t-196 100t-167 205q-39 -161 -39 -329t23 -314t95 -229t186 -83zM574 0q-150 0 -267 87t-172 256t-55 357t55 357t174 256
t267 87t267 -87t174 -256t55 -357t-55 -357t-174 -256t-269 -87zM2062 616q-208 -8 -222 -312q4 -196 86 -200q208 8 222 312q-4 196 -86 200zM2062 720q206 -8 226 -304q-6 -166 -90 -289t-272 -127q-206 8 -226 304q6 166 90 289t272 127z" />
    <glyph glyph-name="guilsinglleft" unicode="&#x2039;" horiz-adv-x="600" 
d="M80 516l336 336h104l-252 -336l252 -336h-104z" />
    <glyph glyph-name="guilsinglright" unicode="&#x203a;" horiz-adv-x="600" 
d="M520 516l-336 -336h-104l252 336l-252 336h104z" />
    <glyph glyph-name="fraction" unicode="&#x2044;" horiz-adv-x="342" 
d="M578 1470h104l-920 -1495h-104z" />
    <glyph glyph-name="Euro" unicode="&#x20ac;" horiz-adv-x="1302" 
d="M321 740q0 -45 4 -87h380l-44 -118h-316q49 -183 181 -287t286 -104t242 32q89 32 157 92h15v-206q-108 -51 -200 -70t-219 -19q-243 0 -433 151t-240 411h-134l44 118h75q-4 42 -4 93t4 99h-119l44 118h93q58 257 244 405t435 148t410 -86v-209h-16q-155 126 -402 126
q-157 1 -285 -103t-176 -281h475l-44 -118h-452q-5 -60 -5 -105z" />
    <glyph glyph-name="trademark" unicode="&#x2122;" horiz-adv-x="1683" 
d="M543 1411h-17v-424q0 -49 41 -53l33 -2v-29h-254v29l31 2q43 4 43 53v424h-17q-65 0 -97 -36t-40 -115h-26l10 182h444l11 -182h-27q-8 78 -40 114t-95 37zM780 1442h191l137 -391l143 391h181v-25l-30 -2q-42 -4 -42 -53v-375q0 -49 42 -53l30 -2v-29h-240v29l31 2
q43 4 43 53v387l-172 -473h-21l-172 475v-389q0 -49 43 -53l33 -2v-29h-197v29l34 2q42 4 42 53v371q0 49 -42 53l-34 4v27z" />
    <glyph glyph-name="partialdiff" unicode="&#x2202;" horiz-adv-x="1059" 
d="M707 494q1 116 -43 178t-123 63q-109 0 -179 -129t-71 -336q0 -116 43 -178t123 -61q109 0 179 130t71 333zM786 946q0 260 -145 260q-55 0 -127 -58t-108 -58t-60 22t-24 53q0 62 72 111t173 49q180 0 287 -155t107 -418q-1 -335 -145 -556t-357 -221q-151 0 -253 108
q-102 109 -102 289t110 308t273 129q101 1 166 -45t103 -143q30 174 30 325z" />
    <glyph glyph-name="product" unicode="&#x220f;" horiz-adv-x="1630" 
d="M53 1473h1522v-74h-191v-1718h191v-74h-596v74h192v1718h-714v-1718h192v-74h-596v74h191v1718h-191v74z" />
    <glyph glyph-name="summation" unicode="&#x2211;" horiz-adv-x="1462" 
d="M16 1473h1162l110 -365h-78l-73 227q-11 34 -41 49t-99 15h-690l809 -832v-37l-825 -735h887q61 0 79 13t29 51l72 229h78l-148 -481h-1272v41l920 815l-920 956v54z" />
    <glyph glyph-name="radical" unicode="&#x221a;" horiz-adv-x="1305" 
d="M1305 1661v-96h-115l-594 -1606h-66l-319 883l-125 -45l-25 80l283 98l256 -709l516 1395h189z" />
    <glyph glyph-name="infinity" unicode="&#x221e;" horiz-adv-x="1706" 
d="M1487 610q1 -170 -83 -278t-218 -107q-94 1 -168 59t-154 199q-70 -136 -148 -199t-173 -63q-135 0 -229 112t-93 282q-1 170 83 278t218 108q95 1 170 -61t150 -203q133 269 323 269q133 0 227 -113t95 -283zM526 842q-101 0 -165 -66t-64 -170q0 -103 59 -170t144 -67
q84 0 150 66t143 231q-98 176 -267 176zM1411 619q0 103 -59 170t-144 67q-84 0 -150 -66t-143 -231q100 -178 267 -178q101 -1 165 67t64 171z" />
    <glyph glyph-name="integral" unicode="&#x222b;" horiz-adv-x="1067" 
d="M311 -262q106 0 120 688q2 108 3 165q12 515 107 737t297 222q80 0 130 -42t50 -102t-32 -90q-32 -32 -80 -32q-91 0 -117 73q-7 15 -11 51t-20 36q-107 0 -121 -619q-4 -193 -8 -303q-17 -479 -111 -686t-291 -207q-79 -1 -129 41t-51 102q0 60 34 92t81 32
q79 0 110 -57q10 -17 15 -59t24 -42z" />
    <glyph glyph-name="approxequal" unicode="&#x2248;" horiz-adv-x="1706" 
d="M1141 657q-95 0 -285 68t-283 68t-181 -36t-214 -122v156q211 143 387 143q115 0 305 -68t275 -67t173 35t212 120v-155q-204 -142 -389 -142zM574 424q-92 0 -182 -36t-214 -122v156q215 145 387 145q115 -1 305 -69t276 -68t174 36q89 36 210 120v-156
q-203 -141 -389 -141q-95 -1 -285 67t-282 68z" />
    <glyph glyph-name="approxequal" unicode="&#x22f2;" horiz-adv-x="1706" 
d="M1141 657q-95 0 -285 68t-283 68t-181 -36t-214 -122v156q211 143 387 143q115 0 305 -68t275 -67t173 35t212 120v-155q-204 -142 -389 -142zM574 424q-92 0 -182 -36t-214 -122v156q215 145 387 145q115 -1 305 -69t276 -68t174 36q89 36 210 120v-156
q-203 -141 -389 -141q-95 -1 -285 67t-282 68z" />
    <glyph glyph-name="notequal" unicode="&#x2260;" horiz-adv-x="1100" 
d="M988 866v-156h-332l-101 -160h433v-155h-521l-183 -280l-77 75l135 205h-234v155h327l96 160h-423v156h516l185 279l77 -72l-137 -207h239z" />
    <glyph glyph-name="lessequal" unicode="&#x2264;" horiz-adv-x="1706" 
d="M1444 1206v-147l-936 -309l936 -306v-149l-1182 395v121zM262 162h1184v-139h-1184v139z" />
    <glyph glyph-name="greaterequal" unicode="&#x2265;" horiz-adv-x="1706" 
d="M262 1206l1184 -395v-121l-1184 -395v149l938 306l-938 309v147zM262 162h1184v-139h-1184v139z" />
    <glyph glyph-name="lozenge" unicode="&#x25ca;" horiz-adv-x="1012" 
d="M506 1653l500 -1061l-500 -1069l-500 1069zM506 1409l-385 -817l385 -825l385 825z" />
    <glyph glyph-name="apple" unicode="&#xf000;" horiz-adv-x="1618" 
d="M1272 741q0 -113 60 -200t173 -138q-114 -247 -205 -343t-204 -95q-50 0 -132 33t-124 33q-43 0 -129 -33q-87 -33 -139 -33t-116 44t-148 158q-84 113 -140 269t-55 301q0 219 125 357t323 137q68 0 155 -34q86 -34 122 -34t124 35t174 35q194 0 337 -164
q-201 -128 -201 -328zM834 1253q0 123 95 229t236 132q2 -20 2 -62q1 -130 -103 -234t-204 -104h-8l-16 2q-2 12 -2 37z" />
    <glyph glyph-name="fi" unicode="&#xf001;" horiz-adv-x="525" 
 />
    <glyph glyph-name="fi" unicode="&#xfb01;" horiz-adv-x="525" 
 />
    <glyph glyph-name="fl" unicode="&#xf002;" horiz-adv-x="480" 
 />
    <glyph glyph-name="fl" unicode="&#xfb02;" horiz-adv-x="480" 
 />
    <glyph glyph-name="Long I capital" horiz-adv-x="1132" 
d="M572 104q100 0 172 83t95 229t23 254q-178 30 -326 30q-64 0 -126 -30t-100 -104t-38 -166t34 -160t100 -102t166 -34zM571 0q-139 0 -243 35t-176 128t-72 213t50 214t164 154t264 60t302 -33q-4 105 -28 222t-96 210t-178 93q-70 0 -127 -25q-103 -45 -103 -207h-192
q0 108 57 185t154 114t228 37t250 -87t174 -256t55 -357t-55 -357t-172 -256t-256 -87z" />
    <glyph glyph-name="Long E capital" horiz-adv-x="1100" 
d="M564 0q-126 0 -230 35t-176 128t-72 231t77 235t219 135q-126 38 -183 121t-57 185t57 179q112 151 367 151q100 0 204 -68t168 -216l-69 -44q-55 106 -139 166t-158 59t-133 -26t-82 -77t-23 -139t59 -154t231 -93v-104q-190 -16 -268 -96t-78 -216q0 -84 34 -152
q68 -136 254 -136q128 0 230 74t126 266h94q-26 -244 -155 -344t-297 -100z" />
    <glyph glyph-name="Long A capital" horiz-adv-x="1148" 
d="M584 104q100 0 172 83t95 229t23 284t-23 284t-95 229t-186 83q-70 0 -127 -25q-103 -45 -103 -207q0 -96 59 -163t231 -93v-104q-190 -16 -268 -96t-78 -216q0 -84 34 -152t100 -102t166 -34zM583 0q-139 0 -243 35t-176 128t-72 231t77 235t219 135q-126 38 -183 121
t-57 185t57 179t154 114t228 37t250 -87t174 -256t55 -357t-55 -357t-172 -256t-256 -87z" />
    <glyph glyph-name="Long AH capital" horiz-adv-x="1152" 
d="M587 1296q-103 0 -167 -54q48 -202 128 -282q128 -128 328 -140q2 24 -20 167t-94 226t-175 83zM576 104q304 0 304 596v16q-112 12 -206 38t-196 100t-167 205q-39 -161 -39 -329t23 -314t95 -229t186 -83zM574 0q-150 0 -267 87t-172 256t-55 357t55 357t174 256
t267 87t267 -87t174 -256t55 -357t-55 -357t-174 -256t-269 -87z" />
    <glyph glyph-name="Long O capital" horiz-adv-x="1152" 
d="M576 1296q-114 0 -186 -83t-95 -229t-23 -284t23 -284t95 -229t186 -83t186 83t95 229t23 284t-23 284t-95 229t-186 83zM576 1400q148 0 267 -87t174 -256t55 -357t-55 -357t-174 -256t-269 -87t-267 87t-172 256t-55 357t55 357t174 256t267 87z" />
    <glyph glyph-name="Long OO capital" horiz-adv-x="1152" 
d="M272 700q0 -495 208 -578v1156q-208 -83 -208 -578zM880 700q0 495 -208 578v-1156q208 83 208 578zM574 0q-150 0 -267 87t-172 256t-55 357t55 357t174 256t267 87t267 -87t174 -256t55 -357t-55 -357t-174 -256t-269 -87z" />
    <glyph glyph-name="Short I capital" horiz-adv-x="840" 
d="M324 0v887l-244 105v144l244 -105v369h192v-451l244 -105v-144l-244 105v-805h-192z" />
    <glyph glyph-name="Short E capital" horiz-adv-x="1336" 
d="M664 540q239 0 360 -164v1024h192v-1400h-160q-16 106 -56 211t-128 165t-208 60t-208 -60t-128 -165t-56 -211h-192q20 200 114 322t210 170t260 48z" />
    <glyph glyph-name="Short A capital" horiz-adv-x="920" 
d="M608 1400h192v-1400h-104l-573 573l77 155l408 -408v1080z" />
    <glyph glyph-name="Short AH capital" horiz-adv-x="1360" 
d="M1052 1400h192v-1400h-104l-382 382v-382h-104l-573 573l77 155l408 -408v253l78 155l408 -408v1080z" />
    <glyph glyph-name="Short O capital" horiz-adv-x="1336" 
d="M672 860q-239 0 -360 164v-1024h-192v1400h160q16 -106 56 -211t128 -165t208 -60t208 60t128 165t56 211h192q-20 -200 -114 -322t-210 -170t-260 -48z" />
    <glyph glyph-name="Short OO capital" horiz-adv-x="1016" 
d="M508 1296q-72 0 -131 -25t-82 -77t-23 -139t59 -154t231 -93q71 -12 142 -18v352q-14 74 -69 114t-127 40zM704 0v680q-206 28 -358 75t-209 130t-57 185t57 179q112 151 367 151q92 0 190 -58t160 -183l42 -85v-1074h-192z" />
    <glyph glyph-name="AY capital" horiz-adv-x="1160" 
d="M362 104q26 0 52 22q42 36 42 170v192q-84 -14 -134 -63t-50 -119t9 -110t32 -66t49 -26zM365 0q-91 0 -153 35q-132 75 -132 261q0 84 58 158q104 133 318 138v808h192v-808q148 0 237 -37t142 -110t53 -145t-21 -126q-43 -111 -219 -178q-20 16 -52 74q58 46 79 114
t21 113t-26 90q-58 101 -214 101v-192q0 -190 -134 -264q-58 -32 -149 -32z" />
    <glyph glyph-name="OW capital" horiz-adv-x="1148" 
d="M584 104q100 0 172 83t95 229t23 254l-244 34q-190 -16 -268 -96t-78 -216q0 -84 34 -152t100 -102t166 -34zM872 771q-10 252 -68 371q-36 72 -100 117l-74 -451zM340 1061q0 -165 154 -219l76 454q-70 0 -127 -25q-103 -45 -103 -210zM583 0q-139 0 -243 35t-176 128
t-72 231t77 235t219 135q-126 38 -183 121t-57 185t57 179t154 114t228 37t250 -87t174 -256t55 -357t-55 -357t-172 -256t-256 -87z" />
    <glyph glyph-name="WU capital" horiz-adv-x="1312" 
d="M80 308v1092h192v-1092q0 -120 40 -162t92 -42q129 0 156 180v532h192v-532q27 -180 156 -180q52 0 92 42t40 162v1092h192v-1092q0 -124 -78 -216t-249 -92t-249 136q-77 -136 -249 -136q-171 0 -249 92t-78 216z" />
    <glyph glyph-name="YEE capital" horiz-adv-x="1884" 
d="M1072 344l124 384q-116 -20 -232 -26zM420 1296q-36 0 -70 -22q-78 -50 -78 -159t93 -180t343 -99l-88 296q-16 48 -48 90t-74 58t-78 16zM80 1091q0 99 46 170t130 105t168 34q336 -24 412 -268l92 -308q162 12 314 46l170 530h216l-140 -432q160 90 220 256l96 -96
q-60 -136 -154 -212t-220 -126l-254 -790h-216l-212 706q-174 6 -337 52t-247 140t-84 193z" />
    <glyph glyph-name="H capital" horiz-adv-x="1160" 
d="M798 1296q-26 0 -52 -22q-42 -36 -42 -170v-192q84 14 134 63t50 119t-9 110t-32 66t-49 26zM795 1400q91 0 153 -35q132 -75 132 -261q0 -84 -58 -158q-104 -133 -318 -138v-808h-192v808q-148 0 -237 37t-142 110t-53 145t21 126q43 111 219 178q20 -16 52 -74
q-58 -46 -79 -114t-21 -113t26 -90q58 -101 214 -101v192q0 190 134 264q58 32 149 32z" />
    <glyph glyph-name="PEE capital" horiz-adv-x="1040" 
d="M768 0v1296h-688v104h880v-1400h-192z" />
    <glyph glyph-name="BEE capital" horiz-adv-x="1228" 
d="M582 104q108 0 210 74t124 266v525l-51 103q-55 106 -139 166t-158 59t-133 -26t-82 -77t-23 -139t59 -154t231 -93v-104q-190 -16 -268 -96t-78 -216q0 -84 34 -152t100 -102t174 -34zM557 0q-123 0 -227 35t-176 128t-72 231t77 235t219 135q-126 38 -183 121t-57 185
t57 179q112 151 367 151q92 0 190 -58t164 -187v245h192v-1400h-192v160q-48 -64 -142 -112t-217 -48z" />
    <glyph glyph-name="TEE capital" 
d="M512 1296q-220 0 -220 -176v-260h-192v260q0 108 108 194t304 86t304 -86t108 -194v-1120h-192v1120q0 176 -220 176z" />
    <glyph glyph-name="DEE capital" horiz-adv-x="1172" 
d="M576 104q304 0 304 596q0 198 -39 359q-65 -131 -167 -205t-196 -100t-206 -38v-16q0 -596 304 -596zM565 1296q-103 0 -175 -83t-94 -226t-20 -167q200 12 328 140q80 80 128 282q-64 54 -167 54zM80 700q0 188 55 357t174 256t267 87q210 0 304 -192v192h192v-1400
h-192v192q-94 -192 -304 -192q-148 0 -267 87t-174 256t-55 357z" />
    <glyph glyph-name="CHEE capital" horiz-adv-x="1028" 
d="M580 1296q-118 0 -190 -83t-95 -229t-23 -284t23 -284t95 -229t186 -83q176 0 204 328q124 0 168 -64q-4 -84 -35 -163t-120 -142t-229 -63t-257 87t-172 256t-55 357t55 357t174 256t267 87t254 -90t118 -278q0 -101 -73 -141q-35 -19 -87 -19t-87 19q-73 40 -73 131
q0 139 108 164q-38 110 -156 110z" />
    <glyph glyph-name="JEE capital" horiz-adv-x="1068" 
d="M296 1012q0 -80 29 -149t94 -106t173 -37t380 64v-128l-328 -656h-192l312 628q-120 -24 -230 -24t-218 49q-212 96 -212 367q0 120 84 210q159 170 412 170q148 0 254 -90t118 -278q0 -101 -73 -141q-35 -19 -87 -19t-87 19q-73 40 -73 131q0 139 108 164
q-38 110 -160 110q-64 0 -141 -34t-120 -102t-43 -148z" />
    <glyph glyph-name="KAY capital" horiz-adv-x="1312" 
d="M1040 308v560q0 108 -56 228t-144 160t-184 40t-184 -40t-144 -160t-56 -228v-560q0 -120 40 -162t92 -42q129 0 156 180v532h192v-532q27 -180 156 -180q52 0 92 42t40 162zM80 308v560q0 128 68 265t208 202t300 65t300 -65t208 -202t68 -265v-560q0 -124 -78 -216
t-249 -92t-249 136q-77 -136 -249 -136q-171 0 -249 92t-78 216z" />
    <glyph glyph-name="GAY capital" horiz-adv-x="1312" 
d="M1040 868q0 108 -56 228t-144 160t-184 40t-183 -40q45 -210 128 -293q131 -131 331 -143l108 -8v56zM1040 308v400l-104 8q-112 12 -206 38t-196 100t-167 205q-14 27 -25 65q-70 -136 -70 -256v-560q0 -120 40 -162t92 -42q129 0 156 180v172h192v-172
q27 -180 156 -180q52 0 92 42t40 162zM80 308v560q0 128 68 265t208 202t300 65t300 -65t208 -202t68 -265v-560q0 -124 -78 -216t-249 -92t-249 136q-77 -136 -249 -136q-171 0 -249 92t-78 216z" />
    <glyph glyph-name="EF capital" horiz-adv-x="1016" 
d="M744 1055q0 87 -23 139t-82 77t-131 25t-127 -40t-69 -114v-352q71 6 142 18q172 26 231 93t59 154zM120 0v1074l42 85q62 125 160 183t202 58t201 -37t154 -114t57 -179t-57 -185t-209 -130t-358 -75v-680h-192z" />
    <glyph glyph-name="VEE capital" horiz-adv-x="1148" 
d="M574 104q100 0 166 34t100 102t34 152q0 136 -78 216t-268 96v104q172 26 231 93t59 154t-23 139t-80 77t-127 25q-114 0 -186 -83t-95 -229t-23 -284t23 -284t95 -229t172 -83zM575 0q-139 0 -256 87t-172 256t-55 357t55 357t174 256t250 87t228 -37t154 -114t57 -179
t-57 -185t-183 -121q142 -38 219 -135t77 -235t-72 -231t-176 -128t-243 -35z" />
    <glyph glyph-name="ETH capital" horiz-adv-x="1040" 
d="M80 0v1400h192v-1296h688v-104h-880z" />
    <glyph glyph-name="THEE capital" horiz-adv-x="1280" 
d="M646 104q30 0 44 24q25 43 -4 98l-42 82l-42 -82q-33 -63 -2 -102q16 -20 46 -20zM852 173q0 -57 -26 -93q-58 -80 -191 -80t-179 89q-20 39 -20 89t44 134l80 160l-480 928h216l348 -764l340 764h216l-472 -928l80 -160q44 -82 44 -139z" />
    <glyph glyph-name="ES capital" horiz-adv-x="1276" 
d="M612 124q220 8 236 232q-4 96 -200 256q-252 -108 -260 -256q0 -220 224 -232zM560 916q216 48 236 192q-12 156 -188 168q-148 -4 -156 -144q-16 -100 108 -216zM612 0q-408 12 -416 356q16 248 352 348l-92 84q-328 -16 -388 204q4 88 104 64q32 -168 200 -168
q-108 100 -112 244q48 260 348 268q340 -24 380 -292q4 -236 -336 -296l72 -68l172 52q116 24 180 -24q112 -108 120 -188q-36 -76 -116 -36l-64 132q-44 36 -144 6l-76 -26q216 -120 244 -304q-32 -356 -428 -356z" />
    <glyph glyph-name="ZEE capital" horiz-adv-x="1132" 
d="M562 104q100 0 166 34t100 102t34 160t-38 166t-100 104t-126 30q-148 0 -326 -30q0 -108 23 -254t95 -229t172 -83zM563 0q-139 0 -256 87t-172 256t-55 357t55 357t174 256t250 87t228 -37t154 -114t57 -185h-192q0 162 -103 207q-57 25 -127 25q-106 0 -178 -93
t-96 -210t-28 -222q152 33 302 33t264 -60t164 -154t50 -214t-72 -213t-176 -128t-243 -35z" />
    <glyph glyph-name="ESH capital" horiz-adv-x="1152" 
d="M576 104q114 0 186 83t95 229t23 284t-23 284t-95 229t-186 83t-186 -83t-95 -229t-23 -284t23 -284t95 -229t186 -83zM576 0q-210 0 -304 192v-192h-192v1400h192v-192q94 192 304 192q148 0 267 -87t174 -256t55 -357t-55 -357t-174 -256t-267 -87z" />
    <glyph glyph-name="ZHEE capital" horiz-adv-x="1028" 
d="M756 388q0 80 -30 136q-49 92 -210 124q-116 24 -216 60t-160 114t-60 198t84 210q159 170 412 170q148 0 254 -90t118 -278q0 -101 -73 -141q-35 -19 -87 -19t-87 19q-73 40 -73 131q0 139 108 164q-38 110 -160 110q-64 0 -141 -34t-120 -102t-43 -148t26 -130
q45 -87 218 -130q300 -72 382 -184q50 -68 50 -188t-84 -210q-159 -170 -412 -170q-148 0 -254 90t-118 278q0 101 73 141q35 19 87 19t87 -19q73 -40 73 -131q0 -139 -108 -164q38 -110 160 -110q64 0 141 34t120 102t43 148z" />
    <glyph glyph-name="ER capital" horiz-adv-x="1296" 
d="M330 1052q-58 0 -58 -136q0 -48 44 -88q94 -85 272 -100q-112 247 -193 301q-35 23 -65 23zM592 0v616q-104 0 -237 33t-204 102t-71 155t32 147t87 96t98 35t95 -23t96 -73t104 -144v456h192v-680q156 0 214 101q26 45 26 90t-21 113t-79 114q32 58 52 74
q176 -67 219 -178q21 -54 21 -126t-53 -145t-142 -110t-237 -37v-616h-192z" />
    <glyph glyph-name="EL capital" 
d="M512 104q220 0 220 176v260h192v-260q0 -108 -108 -194t-304 -86t-304 86t-108 194v1120h192v-1120q0 -176 220 -176z" />
    <glyph glyph-name="EM capital" horiz-adv-x="1028" 
d="M292 1186q108 -25 108 -163q0 -92 -73 -132q-35 -19 -87 -19t-87 19q-73 40 -73 141q12 188 118 278t254 90t267 -87t174 -256t55 -357t-55 -357t-172 -256t-257 -87t-229 63t-120 142t-35 163q44 64 168 64q20 -236 113 -299q43 -29 91 -29q114 0 186 83t95 229t23 284
t-23 284t-95 229t-190 83t-156 -110z" />
    <glyph glyph-name="EN capital" horiz-adv-x="924" 
d="M608 0v742l-406 -406l-78 155v909h192v-718l382 382h102v-1064h-192z" />
    <glyph glyph-name="ENG capital" horiz-adv-x="1272" 
d="M100 0v1400h192v-1180l688 1180h192v-1400h-192v1180l-688 -1180h-192z" />
    <glyph glyph-name="Long I small" horiz-adv-x="992" 
d="M506 104q74 0 125 41t70 120t19 139q-118 52 -199 52t-135 -26t-84 -74t-30 -92t24 -84t80 -58t130 -18zM496 0q-416 0 -416 256q0 88 54 159t160 108t216 37t208 -42q6 156 -82 238q-56 52 -124 52t-116 -9q-93 -17 -116 -103h-148q0 66 50 117q96 99 314 99
q148 0 240 -65t134 -160t42 -231t-42 -231t-134 -160t-240 -65z" />
    <glyph glyph-name="Long E small" horiz-adv-x="972" 
d="M544 440q-272 0 -272 -184q0 -36 24 -76q45 -76 200 -76q88 0 172 35t130 151h94q-32 -158 -142 -224t-254 -66q-416 0 -416 256q0 88 67 154t192 88q-107 26 -157 80t-50 119t50 116q96 99 314 99q86 0 176 -44t145 -141l-73 -35q-88 116 -248 116q-120 0 -154 -52
q-18 -28 -18 -74t44 -92t176 -46v-104z" />
    <glyph glyph-name="Long A small" horiz-adv-x="992" 
d="M544 440q-272 0 -272 -184q0 -36 24 -76q45 -76 206 -76t199 161q19 79 19 191t-19 191q-39 161 -205 161q-120 0 -154 -52q-18 -28 -18 -74t44 -92t176 -46v-104zM496 0q-416 0 -416 256q0 88 67 154t192 88q-107 26 -157 80t-50 119t50 116q96 99 314 99q148 0 240 -65
t134 -160t42 -231t-42 -231t-134 -160t-240 -65z" />
    <glyph glyph-name="Long AH small" horiz-adv-x="1072" 
d="M554 808q-70 0 -114 -18q43 -169 189 -194q71 -12 157 -12q-22 116 -92 170t-140 54zM536 104q78 0 141 42q123 82 123 310v24q-258 0 -371 77q-69 47 -109 125q-48 -92 -48 -211t30 -201t93 -124t141 -42zM536 0q-128 0 -238 54t-164 164t-54 238t54 238t164 164t238 54
t238 -54t164 -164t54 -238t-54 -238t-164 -164t-238 -54z" />
    <glyph glyph-name="Long O small" horiz-adv-x="1072" 
d="M536 808q-256 -8 -264 -352q8 -344 264 -352q256 8 264 352q-8 344 -264 352zM536 912q448 -8 456 -456q-8 -448 -456 -456q-448 8 -456 456q8 448 456 456z" />
    <glyph glyph-name="Long OO small" horiz-adv-x="1072" 
d="M272 456q0 -266 168 -334v668q-168 -68 -168 -334zM800 456q0 266 -168 334v-668q168 68 168 334zM536 0q-128 0 -238 54t-164 164t-54 238t54 238t164 164t238 54t238 -54t164 -164t54 -238t-54 -238t-164 -164t-238 -54z" />
    <glyph glyph-name="Short I small" horiz-adv-x="724" 
d="M268 0v590l-184 92v120l184 -92v200h192v-296l184 -92v-120l-184 92v-494h-192z" />
    <glyph glyph-name="Short E small" 
d="M504 352q148 0 208 -72v630h192v-910h-168q-20 157 -110 214q-54 34 -122 34t-122 -34q-90 -57 -110 -214h-192q30 132 99 214t150 110t175 28z" />
    <glyph glyph-name="Short A small" horiz-adv-x="780" 
d="M468 910h192v-910h-168l-411 411l85 85l302 -302v716z" />
    <glyph glyph-name="Short AH small" horiz-adv-x="1240" 
d="M928 910h192v-910h-168l-292 292v-292h-168l-412 412l86 84l302 -302v144l158 158l302 -302v716z" />
    <glyph glyph-name="Short O small" 
d="M520 558q-148 0 -208 72v-630h-192v910h168q20 -157 110 -214q54 -34 122 -34t122 34q90 57 110 214h192q-30 -132 -99 -214t-150 -110t-175 -28z" />
    <glyph glyph-name="Short OO small" horiz-adv-x="884" 
d="M272 696q0 -60 71 -101t261 -83v204q-33 92 -156 92q-124 0 -158 -52q-18 -28 -18 -60zM604 0v408l-282 74q-142 42 -192 96t-50 119t50 116q96 99 314 99q96 0 181 -41t139 -155v-716h-160z" />
    <glyph glyph-name="AY small" horiz-adv-x="1064" 
d="M440 196v100q-60 -6 -104 -33t-44 -61t10 -54q21 -43 66 -44q72 0 72 92zM772 188q0 99 -140 108v-100q0 -131 -136 -176q-60 -20 -128 -20q-268 0 -268 196q0 182 340 204v510h192v-510q332 -24 332 -204q0 -80 -42 -122t-108 -66q-78 1 -93 64q51 62 51 116z" />
    <glyph glyph-name="OW small|" horiz-adv-x="992" 
d="M272 256q0 -36 24 -76q45 -76 206 -76t199 161q19 79 19 139q-82 28 -176 36q-272 0 -272 -184zM718 518q2 50 -12 118t-46 104t-58 46l-58 -242q87 -9 174 -26zM324 682q0 -46 39 -85t69 -39l64 250q-120 0 -154 -52q-18 -28 -18 -74zM496 0q-416 0 -416 256
q0 88 67 154t192 88q-107 26 -157 80t-50 119t50 116q96 99 314 99q148 0 240 -65t134 -160t42 -231t-42 -231t-134 -160t-240 -65z" />
    <glyph glyph-name="WU small" horiz-adv-x="1096" 
d="M644 184q24 -80 98 -80q82 0 82 120v686h192v-686q0 -80 -42 -130q-79 -94 -242 -94q-126 0 -184 100q-58 -100 -184 -100q-163 0 -242 94q-42 50 -42 130v686h192v-686q0 -120 82 -120q76 0 98 84v300h192v-304z" />
    <glyph glyph-name="YEE small" horiz-adv-x="1284" 
d="M728 326l42 146q-39 -10 -82 -12zM302 808q-24 0 -45 -7t-37 -27t-15 -47q0 -156 265 -173l-42 138q-6 24 -26 57t-48 46t-52 13zM80 712q0 64 30 110t84 68t130 22t131 -27t100 -76t61 -105l50 -164q72 5 130 18l104 354h192l-82 -280q92 58 131 166l63 -63
q-40 -87 -94 -137t-134 -82l-152 -516h-192l-134 458q-96 6 -202 36t-162 92q-54 62 -54 126z" />
    <glyph glyph-name="H small" horiz-adv-x="1064" 
d="M696 808q-72 0 -72 -92v-100q60 6 104 33t44 61t-10 54q-21 44 -66 44zM964 716q0 -182 -340 -204v-512h-192v512q-332 24 -332 204q0 80 42 122t108 66q78 -1 93 -64q-51 -62 -51 -116q0 -99 140 -108v100q0 131 136 176q60 20 128 20q268 0 268 -196z" />
    <glyph glyph-name="PEE small" horiz-adv-x="744" 
d="M472 0v808h-392v102h584v-910h-192z" />
    <glyph glyph-name="BEE small" horiz-adv-x="1108" 
d="M544 440q-272 0 -272 -184q0 -36 24 -76q45 -76 200 -76q88 0 176 41t124 145v322l-52 80q-86 116 -248 116q-120 0 -154 -52q-18 -28 -18 -74t44 -92t176 -46v-104zM496 0q-416 0 -416 256q0 88 67 154t192 88q-107 26 -157 80t-50 119t50 116q96 99 314 99
q80 0 162 -33t138 -119v150h192v-910h-192v100q-44 -46 -126 -73t-174 -27z" />
    <glyph glyph-name="TEE small" horiz-adv-x="864" 
d="M592 0v648q0 80 -42 120t-118 40t-118 -40t-42 -120v-88h-192v88q0 144 98 204t254 60t254 -60t98 -204v-648h-192z" />
    <glyph glyph-name="DEE small" horiz-adv-x="1012" 
d="M516 104q84 0 135 41q89 72 89 311q0 119 -22 202q-34 -60 -100 -104q-105 -70 -326 -73v-25q0 -239 89 -311q51 -41 135 -41zM506 808q-62 0 -108 -29t-67 -74q-22 -45 -31 -120q64 1 130 13q139 27 182 192q-44 18 -106 18zM100 456q0 136 42 231t134 160t237 65
t227 -116v114h192v-910h-192v116q-81 -116 -227 -116q-145 0 -237 65t-134 160t-42 231z" />
    <glyph glyph-name="CHEE small" horiz-adv-x="904" 
d="M272 456q0 -112 19 -191q39 -161 205 -161q76 0 141 43t107 129q22 32 56 17t24 -53q-98 -240 -328 -240q-148 0 -240 65t-134 160t-42 231t42 231t134 160t240 65t238 -87t90 -197q0 -73 -56 -105q-26 -15 -64 -15t-64 15q-56 32 -56 105q0 46 22 75t52 38
q-41 67 -162 67q-166 0 -205 -161q-19 -79 -19 -191z" />
    <glyph glyph-name="JEE small" horiz-adv-x="904" 
d="M328 628q0 -44 28 -87q44 -68 214 -103q60 -14 84 -34t6 -56l-232 -348h-220l232 350q-126 18 -215 83t-89 195q0 66 40 137q83 147 320 147q148 0 238 -87t90 -197q0 -73 -56 -105q-26 -15 -64 -15t-64 15q-56 32 -56 105q0 46 22 75t52 38q-41 67 -162 67
q-48 0 -89 -26t-60 -68t-19 -86z" />
    <glyph glyph-name="KAY small" horiz-adv-x="1096" 
d="M644 184q24 -80 98 -80q82 0 82 120v344q0 96 -68 168t-208 72t-208 -72t-68 -168v-344q0 -120 82 -120q76 0 98 84v300h192v-304zM80 224v344q0 156 136 250t332 94t332 -94t136 -250v-344q0 -80 -42 -130q-79 -94 -242 -94q-126 0 -184 100q-58 -100 -184 -100
q-163 0 -242 94q-42 50 -42 130z" />
    <glyph glyph-name="GAY small" horiz-adv-x="1096" 
d="M798 584h25q-7 92 -73 158t-202 66q-47 0 -97 -11l1 -7q43 -169 189 -194q71 -12 157 -12zM644 184q24 -80 98 -80q82 0 82 120v256h-12q-258 0 -371 77q-69 47 -109 125l-14 28q-46 -66 -46 -142v-344q0 -120 82 -120q76 0 98 84v140h192v-144zM80 224v344
q0 156 136 250t332 94t332 -94t136 -250v-344q0 -80 -42 -130q-79 -94 -242 -94q-126 0 -184 100q-58 -100 -184 -100q-163 0 -242 94q-42 50 -42 130z" />
    <glyph glyph-name="EF small" horiz-adv-x="884" 
d="M444 808q-127 0 -160 -92v-204q190 42 261 83t71 101q0 112 -172 112zM124 0v716q54 114 139 155t182 41t181 -24t132 -75q50 -51 50 -116t-50 -119t-192 -96l-282 -74v-408h-160z" />
    <glyph glyph-name="VEE small" horiz-adv-x="992" 
d="M720 256q0 184 -272 184v104q132 0 176 46t44 92t-18 74q-33 51 -136 52q-102 0 -153 -41t-70 -120t-19 -191t19 -191q39 -161 199 -161q161 0 206 76q24 40 24 76zM912 256q0 -256 -416 -256q-148 0 -240 65t-134 160t-42 231t42 231t134 160t215 65t207 -24t132 -75
q50 -51 50 -116t-50 -119t-157 -80q125 -22 192 -88t67 -154z" />
    <glyph glyph-name="ETH small" horiz-adv-x="744" 
d="M80 0v912h192v-808h392v-104h-584z" />
    <glyph glyph-name="THEE small" horiz-adv-x="888" 
d="M413 127q0 -23 25 -23t35 8q9 8 9 14t-14 34l-21 43l-19 -37q-15 -27 -15 -39zM443 0q-49 0 -87 32t-39 78q0 46 24 98l50 101l-311 603h192l176 -472l168 472h192l-302 -603l54 -103q28 -49 28 -87t-16 -63q-16 -24 -48 -40t-81 -16z" />
    <glyph glyph-name="ES small" horiz-adv-x="824" 
d="M392 112q88 8 96 124q0 100 -72 163q-112 -55 -114 -163t90 -124zM380 604q68 20 80 124q-4 66 -68 72q-56 -4 -56 -72q-12 -84 44 -124zM392 0q-239 12 -252 236q20 160 215 223l-54 54q-213 -9 -237 127q14 60 70 47q19 -110 119 -110q-69 53 -77 159q22 170 216 176
q204 -19 228 -188q-8 -148 -182 -190l42 -42l79 26q70 15 108 -16q45 -26 77 -110q-20 -60 -72 -24l-41 75q-26 24 -103 -3q106 -94 120 -204q-21 -236 -256 -236z" />
    <glyph glyph-name="ZEE small" horiz-adv-x="992" 
d="M486 104q74 0 130 18t80 58t24 84t-30 92q-62 100 -218 100q-82 0 -200 -52q0 -60 19 -139t70 -120t125 -41zM912 256q0 -256 -416 -256q-148 0 -240 65t-134 160t-42 231t42 231t134 160t215 65t207 -24t132 -75q50 -51 50 -117h-148q-23 86 -116 103q-48 9 -116 9
t-124 -52q-88 -81 -82 -238q98 42 208 42t216 -37t160 -108t54 -159z" />
    <glyph glyph-name="ESH small" horiz-adv-x="992" 
d="M496 104q84 0 135 41t70 120t19 191t-19 191t-70 120t-135 41t-135 -41t-70 -120t-19 -191t19 -191t70 -120t135 -41zM499 0q-145 0 -227 116v-116h-192v910h192v-114q81 116 227 116q145 0 237 -65t134 -160t42 -231t-42 -231t-134 -160t-237 -65z" />
    <glyph glyph-name="ZHEE small" horiz-adv-x="852" 
d="M576 284q0 44 -31 75t-121 45q-154 18 -247 75t-93 149q0 66 40 137q83 147 320 147q148 0 238 -87t90 -197q0 -73 -56 -105q-26 -15 -64 -15t-64 15q-56 32 -56 105q0 46 22 75t52 38q-41 67 -162 67q-48 0 -89 -26t-60 -68t-19 -86t20 -69q36 -45 159 -56t218 -63
t95 -156q0 -66 -40 -137q-83 -147 -320 -147q-148 0 -238 87t-90 197q0 73 56 105q26 15 64 15t64 -15q56 -32 56 -105q0 -46 -22 -75t-52 -38q41 -67 162 -67q48 0 89 26t60 68t19 86z" />
    <glyph glyph-name="ER small" 
d="M420 502q-30 96 -90 119q-24 9 -38 9q-18 -10 -20 -30q2 -52 38 -72t110 -26zM944 600q0 -180 -332 -204v-396h-192v396q-340 22 -340 204q0 117 89 160q41 20 69 20q124 -18 182 -116v248h192v-412q140 9 140 100q0 62 -51 124q15 63 93 64q66 -24 108 -66t42 -122z" />
    <glyph glyph-name="EL small" horiz-adv-x="864" 
d="M432 0q-156 0 -254 60t-98 204v648h192v-648q0 -80 42 -120t118 -40t118 40t42 120v88h192v-88q0 -144 -98 -204t-254 -60z" />
    <glyph glyph-name="EM small" horiz-adv-x="904" 
d="M434 0q-132 0 -213 59t-131 181q-10 38 24 53t56 -17q84 -172 252 -172q162 0 201 161q19 79 19 191t-19 191q-39 161 -205 161q-121 0 -162 -67q30 -9 52 -38t22 -71t-15 -68t-41 -41t-64 -15t-64 15q-56 32 -56 105q0 110 90 197t238 87t240 -65t134 -160t42 -231
t-42 -231t-134 -160t-224 -65z" />
    <glyph glyph-name="EN small" horiz-adv-x="892" 
d="M580 0v500l-292 -292h-168v702h192v-508l302 302l158 -158v-546h-192z" />
    <glyph glyph-name="ENG small" horiz-adv-x="1040" 
d="M100 0v912h192v-672l488 672h160v-912h-192v672l-488 -672h-160z" />
    <glyph glyph-name="glyph324" horiz-adv-x="588" 
d="M1362 616q-208 -8 -222 -312q4 -196 86 -200q208 8 222 312q-4 196 -86 200zM1362 720q206 -8 226 -304q-6 -166 -90 -289t-272 -127q-206 8 -226 304q6 166 90 289t272 127z" />
  </font>
</defs>
</svg>
